<svg xmlns="http://www.w3.org/2000/svg" width="142" height="142" viewBox="0 0 142 142">
  <g id="ELU" transform="translate(-558 -950)">
    <g id="Path_15" data-name="Path 15" transform="translate(558 950)" fill="none">
      <path d="M0,0H142V142H0Z" stroke="none"/>
      <path d="M 1 1 L 1 141 L 141 141 L 141 1 L 1 1 M 0 0 L 142 0 L 142 142 L 0 142 L 0 0 Z" stroke="none" fill="#707070"/>
    </g>
    <path id="Path_16" data-name="Path 16" d="M0,0V94" transform="translate(629 962)" fill="none" stroke="#707070" stroke-width="2"/>
    <line id="Line_161" data-name="Line 161" x1="120" transform="translate(570 1022)" fill="none" stroke="#707070" stroke-width="2"/>
    <path id="Path_14" data-name="Path 14" d="M613.129,972.369l-51.868,51.26s-14.773,17.517-57.036,16.933" transform="translate(68.056 -1.324)" fill="none" stroke="#3875c6" stroke-width="5"/>
    <path id="Path_40" data-name="Path 40" d="M-8.14-15.378h-8.91V0h8.91V-2.508h-5.83v-4.07H-8.8V-9.02h-5.17v-3.85h5.83Zm2.794.022V0h8.14V-2.442h-5.06V-15.356ZM4.708-5.874C4.708-1.826,7.48.154,10.846.154s6.27-1.98,6.27-6.028v-9.482h-3.1v9.5c0,2.112-1.144,3.212-3.124,3.212-1.958,0-3.1-1.1-3.1-3.212v-9.5H4.708Z" transform="translate(629 1079)" fill="#303030"/>
  </g>
</svg>
