<svg xmlns="http://www.w3.org/2000/svg" viewBox="0 0 130.11 150.16"><defs><style>.cls-1{fill:#89c767;}.cls-1,.cls-2,.cls-3,.cls-4,.cls-8{stroke:#231f20;}.cls-1,.cls-2,.cls-3,.cls-4,.cls-5,.cls-6,.cls-7,.cls-8{stroke-linecap:round;stroke-linejoin:round;}.cls-1,.cls-3,.cls-4,.cls-8{stroke-width:0.5px;}.cls-2,.cls-8{fill:none;}.cls-2,.cls-5,.cls-6,.cls-7{stroke-width:0.25px;}.cls-3{fill:#a0cf72;}.cls-4{fill:#add479;}.cls-5{fill:#a9cb98;}.cls-5,.cls-6,.cls-7{stroke:#303030;}.cls-6{fill:#c1dfac;}.cls-7{fill:#d4e8bb;}</style></defs><g id="Layer_2" data-name="Layer 2"><g id="Layer_2-2" data-name="Layer 2"><polygon class="cls-1" points="65.06 149.91 129.86 112.5 129.86 37.67 65.06 75.08 65.06 149.91"/><line class="cls-2" x1="129.86" y1="112.5" x2="65.06" y2="75.08"/><polygon class="cls-3" points="65.06 149.91 0.25 112.5 0.25 37.67 65.06 75.08 65.06 149.91"/><line class="cls-2" x1="0.25" y1="112.49" x2="18.35" y2="102.04"/><polygon class="cls-4" points="0.25 37.67 65.06 0.25 129.86 37.67 65.06 75.08 0.25 37.67"/><line class="cls-2" x1="65.06" y1="0.25" x2="65.06" y2="21.15"/><polygon class="cls-5" points="65.06 129.01 111.76 102.05 111.76 48.12 65.06 75.08 65.06 129.01"/><polygon class="cls-6" points="65.06 129.01 18.35 102.05 18.35 48.12 65.06 75.08 65.06 129.01"/><polygon class="cls-7" points="18.35 48.12 65.06 21.15 111.76 48.12 65.06 75.08 18.35 48.12"/><line class="cls-8" x1="65.06" y1="149.91" x2="65.06" y2="75.08"/><line class="cls-8" x1="129.86" y1="37.67" x2="65.06" y2="75.08"/><line class="cls-8" x1="0.25" y1="37.67" x2="65.06" y2="75.08"/></g></g></svg>