<svg xmlns="http://www.w3.org/2000/svg" width="106" height="99" viewBox="0 0 106 99">
  <g id="RemoveNeuronButton" transform="translate(-1255 -101)">
    <rect id="Rectangle_15" data-name="Rectangle 15" width="106" height="99" transform="translate(1255 101)" fill="none"/>
    <g id="Ellipse_2" data-name="Ellipse 2" transform="translate(1294 122)" fill="#fff" stroke="#303030" stroke-width="1">
      <circle cx="14" cy="14" r="14" stroke="none"/>
      <circle cx="14" cy="14" r="13.5" fill="none"/>
    </g>
    <path id="Path_44" data-name="Path 44" d="M9.658-10.582c0,1.386-.77,2.288-2.486,2.288H4.6V-12.8H7.172C8.888-12.8,9.658-11.946,9.658-10.582Zm-8.14-4.774V0H4.6V-5.984H6.05L9.438,0H13L9.328-6.226a4.434,4.434,0,0,0,3.5-4.422c0-2.574-1.848-4.708-5.544-4.708Zm19.338,5.5a2.708,2.708,0,0,1,2.9,2.618H17.974A2.83,2.83,0,0,1,20.856-9.856Zm5.786,6.028H23.32a2.511,2.511,0,0,1-2.442,1.474A2.852,2.852,0,0,1,17.952-5.17h8.91a7.2,7.2,0,0,0,.088-1.188,5.722,5.722,0,0,0-6.006-6.028c-3.608,0-6.116,2.442-6.116,6.292A5.9,5.9,0,0,0,20.944.2,5.665,5.665,0,0,0,26.642-3.828ZM46.244,0h3.08V-7.15c0-3.366-2.068-5.214-4.994-5.214a4.826,4.826,0,0,0-4.18,2.332,4.665,4.665,0,0,0-4.29-2.332,4.438,4.438,0,0,0-3.586,1.65v-1.474h-3.08V0h3.08V-6.732c0-1.936,1.078-2.948,2.75-2.948,1.628,0,2.706,1.012,2.706,2.948V0h3.08V-6.732c0-1.936,1.078-2.948,2.728-2.948,1.628,0,2.706,1.012,2.706,2.948ZM64.02-6.094a6.023,6.023,0,0,0-6.27-6.292,6.023,6.023,0,0,0-6.27,6.292A5.966,5.966,0,0,0,57.662.2,6.093,6.093,0,0,0,64.02-6.094Zm-9.416,0c0-2.442,1.474-3.608,3.1-3.608s3.146,1.166,3.146,3.608c0,2.42-1.562,3.608-3.19,3.608C56.012-2.486,54.6-3.674,54.6-6.094Zm10.384-6.094L69.476,0h3.74l4.51-12.188H74.448l-3.08,9.35-3.08-9.35ZM84.7-9.856a2.708,2.708,0,0,1,2.9,2.618H81.818A2.83,2.83,0,0,1,84.7-9.856Zm5.786,6.028H87.164a2.511,2.511,0,0,1-2.442,1.474A2.852,2.852,0,0,1,81.8-5.17h8.91a7.2,7.2,0,0,0,.088-1.188,5.722,5.722,0,0,0-6.006-6.028c-3.608,0-6.116,2.442-6.116,6.292A5.9,5.9,0,0,0,84.788.2,5.665,5.665,0,0,0,90.486-3.828Z" transform="translate(1262 173)" fill="#303030"/>
    <g id="Rectangle_12" data-name="Rectangle 12" transform="translate(1311 142)" fill="#f44" stroke="#303030" stroke-width="1">
      <rect width="17" height="5" stroke="none"/>
      <rect x="0.5" y="0.5" width="16" height="4" fill="none"/>
    </g>
  </g>
</svg>
