<svg xmlns="http://www.w3.org/2000/svg" width="142" height="142" viewBox="0 0 142 142">
  <g id="Sigmoid_Icon" transform="translate(-558 -950)">
    <g id="Path_15" data-name="Path 15" transform="translate(558 950)" fill="none">
      <path d="M0,0H142V142H0Z" stroke="none"/>
      <path d="M 1 1 L 1 141 L 141 141 L 141 1 L 1 1 M 0 0 L 142 0 L 142 142 L 0 142 L 0 0 Z" stroke="none" fill="#707070"/>
    </g>
    <path id="Path_16" data-name="Path 16" d="M0,0V94" transform="translate(629 962)" fill="none" stroke="#707070" stroke-width="2"/>
    <line id="Line_161" data-name="Line 161" x1="120" transform="translate(570 1022)" fill="none" stroke="#707070" stroke-width="2"/>
    <path id="Path_14" data-name="Path 14" d="M619.97,979.689c-49.483-.094-52.258,3.918-58.92,19.614-.6,1.4-1.144,2.705-1.809,4.2-5.655,12.75-10.123,15.127-57.3,15.455" transform="translate(68.056 -1.324)" fill="none" stroke="#f55959" stroke-width="5"/>
    <path id="Path_38" data-name="Path 38" d="M-34.023-4.444c0-5.412-7.876-3.7-7.876-6.776,0-1.254.9-1.848,2.112-1.8a2.027,2.027,0,0,1,2.2,1.826H-34.2c-.2-2.772-2.354-4.378-5.5-4.378-3.168,0-5.412,1.672-5.412,4.444-.022,5.566,7.9,3.564,7.9,6.886,0,1.1-.858,1.87-2.31,1.87a2.108,2.108,0,0,1-2.332-2.046h-3.3c.044,2.9,2.508,4.576,5.7,4.576C-35.959.154-34.023-2.024-34.023-4.444ZM-31.361,0h3.08V-12.188h-3.08ZM-29.8-13.64a1.819,1.819,0,0,0,1.892-1.8,1.819,1.819,0,0,0-1.892-1.8,1.806,1.806,0,0,0-1.892,1.8A1.806,1.806,0,0,0-29.8-13.64Zm3.762,7.5C-26.037-2.332-23.573.2-20.471.2a4.807,4.807,0,0,0,4.026-2V.088c0,2.266-1.32,3.234-3.014,3.234A2.866,2.866,0,0,1-22.451,1.5h-3.058c.308,2.794,2.706,4.51,6.138,4.51,4,0,6.028-2.618,6.028-5.918V-12.188h-3.1v1.738a4.769,4.769,0,0,0-4.026-1.936C-23.573-12.386-26.037-9.944-26.037-6.138Zm9.592.044a3.282,3.282,0,0,1-3.234,3.586,3.331,3.331,0,0,1-3.212-3.63A3.251,3.251,0,0,1-19.679-9.68,3.282,3.282,0,0,1-16.445-6.094ZM6.721,0H9.8V-7.15c0-3.366-2.068-5.214-4.994-5.214a4.826,4.826,0,0,0-4.18,2.332,4.665,4.665,0,0,0-4.29-2.332,4.438,4.438,0,0,0-3.586,1.65v-1.474h-3.08V0h3.08V-6.732c0-1.936,1.078-2.948,2.75-2.948,1.628,0,2.706,1.012,2.706,2.948V0h3.08V-6.732c0-1.936,1.078-2.948,2.728-2.948,1.628,0,2.706,1.012,2.706,2.948ZM24.5-6.094a6.023,6.023,0,0,0-6.27-6.292,6.023,6.023,0,0,0-6.27,6.292A5.966,5.966,0,0,0,18.139.2,6.093,6.093,0,0,0,24.5-6.094Zm-9.416,0c0-2.442,1.474-3.608,3.1-3.608s3.146,1.166,3.146,3.608c0,2.42-1.562,3.608-3.19,3.608C16.489-2.486,15.081-3.674,15.081-6.094ZM26.763,0h3.08V-12.188h-3.08Zm1.562-13.64a1.819,1.819,0,0,0,1.892-1.8,1.819,1.819,0,0,0-1.892-1.8,1.806,1.806,0,0,0-1.892,1.8A1.806,1.806,0,0,0,28.325-13.64Zm3.762,7.5C32.087-2.332,34.551.2,37.653.2a4.606,4.606,0,0,0,4-2V0h3.124V-16.28H41.657v5.786a5,5,0,0,0-3.982-1.892C34.551-12.386,32.087-9.944,32.087-6.138Zm9.592.044a3.282,3.282,0,0,1-3.234,3.586,3.331,3.331,0,0,1-3.212-3.63A3.251,3.251,0,0,1,38.445-9.68,3.282,3.282,0,0,1,41.679-6.094Z" transform="translate(629 1079)" fill="#303030"/>
  </g>
</svg>
