<svg xmlns="http://www.w3.org/2000/svg" width="142" height="142" viewBox="0 0 142 142">
  <g id="Tanh_Icon" transform="translate(-558 -950)">
    <g id="Path_15" data-name="Path 15" transform="translate(558 950)" fill="none">
      <path d="M0,0H142V142H0Z" stroke="none"/>
      <path d="M 1 1 L 1 141 L 141 141 L 141 1 L 1 1 M 0 0 L 142 0 L 142 142 L 0 142 L 0 0 Z" stroke="none" fill="#707070"/>
    </g>
    <path id="Path_16" data-name="Path 16" d="M0,0V94" transform="translate(629 962)" fill="none" stroke="#707070" stroke-width="2"/>
    <line id="Line_161" data-name="Line 161" x1="120" transform="translate(570 1009)" fill="none" stroke="#707070" stroke-width="2"/>
    <path id="Path_14" data-name="Path 14" d="M619.97,979.689c-49.483-.094-52.258,3.918-58.92,19.614-7,16.494-7.55,19.3-59.1,19.658" transform="translate(68.043 9.676)" fill="none" stroke="#f5a759" stroke-width="5"/>
    <path id="Path_39" data-name="Path 39" d="M-27.643-12.87h4.092V0h3.08V-12.87h4.092v-2.486H-27.643Zm12.716,6.732C-14.927-2.332-12.463.2-9.383.2a4.807,4.807,0,0,0,4.048-1.98V0h3.1V-12.188h-3.1v1.738a4.82,4.82,0,0,0-4.026-1.936C-12.463-12.386-14.927-9.944-14.927-6.138Zm9.592.044A3.282,3.282,0,0,1-8.569-2.508a3.331,3.331,0,0,1-3.212-3.63A3.251,3.251,0,0,1-8.569-9.68,3.282,3.282,0,0,1-5.335-6.094ZM9.317,0H12.4V-7.15c0-3.366-2.024-5.214-4.862-5.214A4.552,4.552,0,0,0,3.861-10.67v-1.518H.781V0h3.08V-6.732c0-1.958,1.078-3.014,2.75-3.014,1.628,0,2.706,1.056,2.706,3.014Zm6.006,0H18.4V-6.732c0-1.958,1.078-3.014,2.75-3.014,1.628,0,2.706,1.056,2.706,3.014V0h3.08V-7.15c0-3.366-2-5.214-4.752-5.214A4.683,4.683,0,0,0,18.4-10.67v-5.61h-3.08Z" transform="translate(629 1079)" fill="#303030"/>
  </g>
</svg>
