<?xml version="1.0" encoding="utf-8"?>
<!-- Generator: Adobe Illustrator 26.0.2, SVG Export Plug-In . SVG Version: 6.00 Build 0)  -->
<svg version="1.1" id="Layer_1" xmlns="http://www.w3.org/2000/svg" xmlns:xlink="http://www.w3.org/1999/xlink" x="0px" y="0px"
	 viewBox="0 0 288 300" style="enable-background:new 0 0 288 300;" xml:space="preserve">
<style type="text/css">
	.st0{fill:#3B3B3B;}
	.st1{fill:#FFFFFF;}
	.st2{fill:#FFFAD6;}
	.st3{fill:#DBFFD4;}
	.st4{fill:#CFE9FF;}
	.st5{fill:#FCE6FF;}
	.st6{fill:none;stroke:#252868;stroke-width:2;stroke-miterlimit:10;}
	.st7{fill:#FFFFFF;stroke:#252868;stroke-width:2;stroke-miterlimit:10;}
</style>
<g transform="translate(0.000000,300.000000) scale(0.100000,-0.100000)">
	<g id="XMLID_00000041984110236417553840000007798950217253448377_">
		<g>
			<path class="st0" d="M2815.7,2095c37-82,43-210,14-330c-34-146-44-178-70-224c-34-59-110-123-171-144c-132-44-159-51-218-52
				l-64-2l-12-81c-6-44-20-95-31-114c-12-18-24-50-27-70c-14-77-159-198-294-244c-77-27-179-31-220-10c-37,19-165,31-189,18
				c-12-7-24-31-31-63c-12-49-23-64-141-184c-77-78-141-153-161-188c-19-34-43-62-57-68c-62-23-113,1-113,54c0,14,13,61,30,104
				c16,42,30,79,30,80s-39-1-88-5c-221-18-343,0-439,65c-53,35-114,113-133,169c-11,30-14,32-49,27c-21-3-62,2-92,10
				c-77,23-133,84-199,218l-52,107l-5,178c-5,189,8,356,33,426c20,58,43,106,53,113c5,3,13,20,17,38c13,60,56,136,107,189
				c27,29,61,73,74,98c32,58,90,119,179,186c39,29,78,59,86,66c56,53,141,105,197,123c14,4,43,21,65,37c57,41,119,66,191,78
				c35,6,76,17,91,25c16,8,45,18,64,21c19,4,39,10,45,14c23,18,140,29,307,28c97,0,178-2,180-3c2-2,45-6,95-9c54-3,105-11,122-21
				c17-8,45-15,64-15c50,0,210-54,275-94c31-18,82-46,112-61c88-44,137-82,192-148c28-34,67-73,85-88c44-32,87-96,113-167
				C2792.7,2150,2807.7,2112,2815.7,2095z M2799.7,1895l1.1,41.1c0,23-9,72-20,108c-18,58-24,66-46,66c-26,0-47,31-26,38
				c33,11-4,105-61,154c-52,44-94,58-179,58c-78,0-81,1-60,16c13,9,22,20,20,24c-2,5-30,29-62,54c-39,30-69,46-88,46
				c-17,0-27,4-23,10c3,6,26,10,49,10c33,0,53-8,87-33c97-74,176-95,99-26c-64,57-129,94-142,81c-7-7-21,0-46,25
				c-20.8,21.3-54.7,42.8-95.8,61.9c-40,18.6-86.9,34.8-135.2,46.1c-71,18-77,17-170-11c-8.6-2.4-13.9-3.6-16.4-3
				c-3.9,0.9-1.3,6.2,5.4,19c11,20,10,25-6,37c-24,18-74,17-74-1c0-8-5-16-12-18c-16.6-5.5,40.9-32.2,85-43.2
				c11.9-3,22.7-4.8,31-4.8c20,0,72-8,114-17s98-16,124-15c21,1.1,34.9,0,47.2-4.6c9.4-3.5,17.8-9.1,27.8-17.4l28-24l-48,5
				c-45,5-47,5-47-20c0-14-3-32-6-40c-4-11,4-17,25-22c16-3,48-19,69-35c35-25,40-34,46-84c2.3-18,4-30,6.5-38.4
				c-4,3.1-7.9,6.2-12,9.2c-12.3,9-25.3,17.3-38.8,24.6c-2.8,48.2-64.3,87-173.1,108.6c-8.2,6.5-16.8,12.5-25.8,17.9
				c-6.6,3.9-13.3,7.4-20.1,10.6l16.2,4.5c60,17,84,39,60,54c-17,10-125,31-170,32c-35,1-38-1-32-21c4-13,14-34,22-46
				c0.1-0.1,0.1-0.2,0.2-0.3c-11.2,0-22.4-0.5-33.5-2c-4.1-0.6-8-1.3-12-2c-22.1,45.2-59,87.4-103.7,115.3c-55,34-250,8-289-39
				c-12-14-39-20-39-7c0,3,7,14,16,24c10,11,18,40,19,69l3,50h-68c-41,0-105-10-158-24c-49-13-102-31-118-40c-29-16-28-16,31-10
				c82,8,121-17,147-98c4.6-13.5,8.3-23.9,11.8-32c-18.4,2.6-36.4,3.4-53.8,2.4c-2.1,6.4-3.9,12.5-5,17.6c-9,50-40,67-112,59
				c-53-6-60-5-81,18c-25,26-31,26-115,0c-54-17-60-28-17-37c23-4,35-15,45-39c13-30,19-34,82-46c11.7-2.3,22.4-4.5,32.3-6.8
				c-18.4-5.9-35.4-16.1-49.4-30.5c-56.5,11-85.1,8.7-124.9-6.7c-22-8-42-13-45-10s13,20,34,38c60,50,37,77-59,67c-22-3-63-13-90-23
				c-61-23-162-97-193-141c-30.3-44.8-25.5-94.2,7.2-127.6c-15.5-6-29.5-15-40.7-27c-14.3,14.8-25.9,31.5-32.5,47.5
				c-9,21-22,39-30,39c-15,0-126-115-126-131c0-5,14-9,32-9c44,0,68-25,68-70c0-44-26-72-100-106c-29-13-54-24-58-24
				c-12,0,32,40,52,46c35,11,67,53,64,83c-6,51-64,41-137-25c-62-55-101-127-101-184c0-22,2-40,4-40c3,0,18,14,34,30
				c48,48,93,40,165-29c38-35,39-36,53-16c15,20,14,58-2,99c-5,14-3,17,7,14c28-9,40-51,35-121c-6-78,6-119,40-142
				c31-20,25-30-18-33c-18-2-35-7-36-12c-9-25-23-7-17,20c10,45-42,126-116,183c-66,49-89,31-123-99c-35-130-42-228-21-282
				c11-26,15-54,11-72c-3-17-9-43-12-59c-8-38,34-125,83-172c44-42,88-59,154-59c37.4,0,46.8,2.3,61.1,23.2
				c6.3-18.6,13.9-35.8,22.9-51.4l-1-0.8c-21-16-41-21-89-21c-74,0-91-13-81-62c6-30,5-31-10-17c-8,9-18,35-21,57c-4,32-13,48-39,67
				c-18,14-54,55-80,90c-79,112-111,110-106-5c3-47,38-106,56-91c19,16,26,3,26-50c0-52,11-67,30-44c16,20,44,20,36,0
				c-3-8-8-21-11-28c-10-23,38-79,80-94c46-17,157-12,180,7c18,15,20,30,3,30c-19,0-58,42-58,61c0,17,4,16,44-5c79-42,226-42,282-1
				c7.4,5.3,11.6,8.6,13,11.9c22.9-0.4,45.5,1.9,68.8,6.5c74.5-44,120.9-49.8,267.2-43.5c16,1,56-2,87-6c62-7,124,4,194,37
				c54,24,57,24,49-2c-8-25,14-48,65-67c107-42,165-30,154,31c-9,50-46,119-75,140c-26,19-26,19-93-13l-67-32l-44,17l-0.9,0.3
				c15.8,10.8,31.6,22.1,45.7,35.2c10.3,2.5,38.2,16.3,67.2,33.5c10.6,6,22.5,12.2,34.5,18.2c25.5,2.8,49.2,12.6,68.4,27.7
				c7.8,1.5,15.6,2.8,23.4,3.7c22.4,2.5,44.1-0.9,65.8-5.5c-13-11.3-22.7-23.8-27.1-37.1c-12-35-6-44,19-28c14,8,32,8,77-1
				c33-7,67-9,76-6s16,2,16-4c0-20-28-31-90-34c-59-3-65-5-68-26c-5-36,25-126,53-157c26-27,29-27,110-23c74,4,94,9,161,44
				c140,71,223,169,180,212c-14,14-21,14-52,3c-47-17-56-5-19,25c21,16,43,24,70,24c35,0,43,4,59,31c31.1,52.6,31.7,157.1,7.9,218.2
				c2.2,2.8,4.4,5.6,6.4,8.6c8.5,12.6,15.3,27.3,20.2,42.6c7.7-2.9,15.3-3.6,24.5-3.3c74,2,222,99,298,196c43,53,49,46,19-20
				c-17-39-17-43-3-43c9,0,38,22,65,50c45,47,48,49,48,24c0-48-35-80-130-120c-91-37-107-51-70-61c40-10,19-23-35-22
				c-30,1-60-3-67-8c-7-6-31-16-53-23c-55-17-58-20-44-36c21-25,114-14,229,27c57,20,135,84,168,137c37,61,56,148,48,223
				c-6,66-30,142-46,147c-5,2-10,21-10,42c0,49-38,95-91,111c-30,10-36,14-25,23c29,24,26,45-14,79c-38,33-78,46-185,62
				c-7.7,1.1-16.4,1.9-25.4,2.6c-11.7,21.9-27.3,41.6-45.6,59.4c4-1,8.5-1.9,14-3c111-19,190-37,217-51c46-23,103-83,110-115
				c4-15,22-40,41-54c22-18,38-40,45-68c6-22,20-61,30-86L2799.7,1895z M1685.7,2700l90,6l-45,22c-37,19-56,22-105,17
				c-40-3-66-12-79-24c-25-25-12-45,23-35C1583.7,2690,1635.7,2696,1685.7,2700z M1440.7,846c0,3-15,2-33-1c-17-3-68-9-112-14
				c-232-27-397-51-555-82c-118-23-127-28-41-23c46,2,91,9,100,13c19,10,309,36,317,28c3-3-25-8-63-11c-37-4-82-11-98-15
				c-17-5-73-15-125-22s-127-20-165-30l-70-17l55-1c30-1,89,5,130,13s106,17,145,20c68,6,69,6,33-7c-20-8-61-17-90-21s-71-12-93-18
				c-45-13-75-34-35-25c37,9,169,11,177,4c3-4-10-7-30-7c-21,0-37-4-37-10s24-7,62-3c55,5,70,12,113,48c79,66,118,93,158,110
				c48,20,48,4,1-19c-40-18-42-32-3-18c13,5,37,12,54,16c28,7,29,6,10-7c-11-8-47-26-80-40c-33-15-52-26-42-27c10,0,28,5,39,11
				s35,15,51,20c28,8,29,7,16-6c-8-9-53-29-100-45c-70-24-78-29-49-29c42,0,148,45,189,81c16,14,61,49,100,78
				C1408.7,818,1440.7,844,1440.7,846z M1407.7,870c18,0,33,5,33,11c0,11-170,3-230-12c-19-4-78-13-130-19c-217-24-565-90-559-105
				c2-5,8-9,14-8c5,2,48,10,95,18s119,22,160,30c80,17,139,26,320,50c63,8,149,19,190,25C1341.7,865,1390.7,870,1407.7,870z
				 M1344.7,646c87,80,116,124,84,124c-7,0-37-26-66-57c-81-86-187-213-211-253c-23-38-28-28-9,17c13,30,76,120,103,146
				c20,21,13,22-23,3c-57-30-112-105-130-178c-16-64-16-68,13-68c18,0,29,9,41,33c6.8,13.1,15.5,27.4,25.9,42.5
				C1210,509.6,1269.7,575.7,1344.7,646z M1200.7,897c7,8-214-5-280-17c-30-6-85-14-121-20c-68-9-299-59-312-67c-15-9,4-22,21-14
				c15,8,169,39,277,56c153,24,242,37,320,46C1154.7,886,1197.7,894,1200.7,897z M965.7,910c4,6-10,10-34,10c-23,0-41-4-41-10
				c0-5,15-10,34-10S962.7,905,965.7,910z M839.7,935c6,7-52,6-88-1c-17-4-31-10-31-14C720.7,913,830.7,927,839.7,935z M800.7,888
				c51,7,57,10,27,11c-22,0-85-9-140-20c-179-38-174-37-148-38c13,0,62,8,110,18C696.7,870,764.7,883,800.7,888z M602.7,713
				c8,3,5,6-6,6c-11,1-17-2-13-5C586.7,711,595.7,710,602.7,713z M495.7,830c3,6-1,10-9,10c-9,0-16-4-16-10c0-5,4-10,9-10
				C485.7,820,492.7,825,495.7,830z M141.7,1685c25,97,30,127,25,140c-12,31-26,12-51-67c-22-68-28-109-32-228
				c-0.4-12.2-0.8-23.4-1.1-33.7c-3.6-107.5-1-114.7,19.1-140.3l22-29l14,44c13,44,10,109-7,109c-5,0-10-8-13-17c-3-15-6-13-16,8
				c-4.6,9.3-7.1,16.6-7.1,24.9c0,11.3,4.7,24.5,15.1,47.1c12,25,21,59,21,74S135.7,1663,141.7,1685z"/>
			<path class="st1" d="M2800.8,1936.1l-1.1-41.1l-18,45c-10,25-24,64-30,86c-7,28-23,50-45,68c-19,14-37,39-41,54
				c-7,32-64,92-110,115c-27,14-106,32-217,51c-5.5,1.1-10,2-14,3c18.3-17.8,33.9-37.5,45.6-59.4c9-0.7,17.7-1.5,25.4-2.6
				c107-16,147-29,185-62c40-34,43-55,14-79c-11-9-5-13,25-23c53-16,91-62,91-111c0-21,5-40,10-42c16-5,40-81,46-147
				c8-75-11-162-48-223c-33-53-111-117-168-137c-115-41-208-52-229-27c-14,16-11,19,44,36c22,7,46,17,53,23c7,5,37,9,67,8
				c54-1,75,12,35,22c-37,10-21,24,70,61c95,40,130,72,130,120c0,25-3,23-48-24c-27-28-56-50-65-50c-14,0-14,4,3,43
				c30,66,24,73-19,20c-76-97-224-194-298-196c-9.2-0.3-16.8,0.4-24.5,3.3c-4.9-15.3-11.7-30-20.2-42.6c-2-3-4.2-5.8-6.4-8.6
				c23.8-61.1,23.2-165.6-7.9-218.2c-16-27-24-31-59-31c-27,0-49-8-70-24c-37-30-28-42,19-25c31,11,38,11,52-3c43-43-40-141-180-212
				c-67-35-87-40-161-44c-81-4-84-4-110,23c-28,31-58,121-53,157c3,21,9,23,68,26c62,3,90,14,90,34c0,6-7,7-16,4s-43-1-76,6
				c-45,9-63,9-77,1c-25-16-31-7-19,28c4.4,13.3,14.1,25.8,27.1,37.1c-21.7,4.6-43.4,8-65.8,5.5c-7.8-0.9-15.6-2.2-23.4-3.7
				c-19.2-15.1-42.9-24.9-68.4-27.7c-12-6-23.9-12.2-34.5-18.2c-29-17.2-56.9-31-67.2-33.5c-14.1-13.1-29.9-24.4-45.7-35.2l0.9-0.3
				l44-17l67,32c67,32,67,32,93,13c29-21,66-90,75-140c11-61-47-73-154-31c-51,19-73,42-65,67c8,26,5,26-49,2c-70-33-132-44-194-37
				c-31,4-71,7-87,6c-146.3-6.3-192.7-0.5-267.2,43.5c-23.3-4.6-45.9-6.9-68.8-6.5c-1.4-3.3-5.6-6.6-13-11.9c-56-41-203-41-282,1
				c-40,21-44,22-44,5c0-19,39-61,58-61c17,0,15-15-3-30c-23-19-134-24-180-7c-42,15-90,71-80,94c3,7,8,20,11,28c8,20-20,20-36,0
				c-19-23-30-8-30,44c0,53-7,66-26,50c-18-15-53,44-56,91c-5,115,27,117,106,5c26-35,62-76,80-90c26-19,35-35,39-67
				c3-22,13-48,21-57c15-14,16-13,10,17c-10,49,7,62,81,62c48,0,68,5,89,21l1,0.8c-9,15.6-16.6,32.8-22.9,51.4
				c-14.3-20.9-23.7-23.2-61.1-23.2c-66,0-110,17-154,59c-49,47-91,134-83,172c3,16,9,42,12,59c4,18,0,46-11,72
				c-21,54-14,152,21,282c34,130,57,148,123,99c74-57,126-138,116-183c-6-27,8-45,17-20c1,5,18,10,36,12c43,3,49,13,18,33
				c-34,23-46,64-40,142c5,70-7,112-35,121c-10,3-12,0-7-14c16-41,17-79,2-99c-14-20-15-19-53,16c-72,69-117,77-165,29
				c-16-16-31-30-34-30c-2,0-4,18-4,40c0,57,39,129,101,184c73,66,131,76,137,25c3-30-29-72-64-83c-20-6-64-46-52-46
				c4,0,29,11,58,24c74,34,100,62,100,106c0,45-24,70-68,70c-18,0-32,4-32,9c0,16,111,131,126,131c8,0,21-18,30-39
				c6.6-16,18.2-32.7,32.5-47.5c11.2,12,25.2,21,40.7,27c-32.7,33.4-37.5,82.8-7.2,127.6c31,44,132,118,193,141c27,10,68,20,90,23
				c96,10,119-17,59-67c-21-18-37-35-34-38s23,2,45,10c39.8,15.4,68.4,17.7,124.9,6.7c14,14.4,31,24.6,49.4,30.5
				c-9.9,2.3-20.6,4.5-32.3,6.8c-63,12-69,16-82,46c-10,24-22,35-45,39c-43,9-37,20,17,37c84,26,90,26,115,0c21-23,28-24,81-18
				c72,8,103-9,112-59c1.1-5.1,2.9-11.2,5-17.6c17.4,1,35.4,0.2,53.8-2.4c-3.5,8.1-7.2,18.5-11.8,32c-26,81-65,106-147,98
				c-59-6-60-6-31,10c16,9,69,27,118,40c53,14,117,24,158,24h68l-3-50c-1-29-9-58-19-69c-9-10-16-21-16-24c0-13,27-7,39,7
				c39,47,234,73,289,39c44.7-27.9,81.6-70.1,103.7-115.3c4,0.7,7.9,1.4,12,2c11.1,1.5,22.3,2,33.5,2c-0.1,0.1-0.1,0.2-0.2,0.3
				c-8,12-18,33-22,46c-6,20-3,22,32,21c45-1,153-22,170-32c24-15,0-37-60-54l-16.2-4.5c6.8-3.2,13.5-6.7,20.1-10.6
				c9-5.4,17.6-11.4,25.8-17.9c108.8-21.6,170.3-60.4,173.1-108.6c13.5-7.3,26.5-15.6,38.8-24.6c4.1-3,8-6.1,12-9.2
				c-2.5,8.4-4.2,20.4-6.5,38.4c-6,50-11,59-46,84c-21,16-53,32-69,35c-21,5-29,11-25,22c3,8,6,26,6,40c0,25,2,25,47,20l48-5l-28,24
				c-10,8.3-18.4,13.9-27.8,17.4l7,15.5c41.1-19.1,75-40.6,95.8-61.9c25-25,39-32,46-25c13,13,78-24,142-81c77-69-2-48-99,26
				c-34,25-54,33-87,33c-23,0-46-4-49-10c-4-6,6-10,23-10c19,0,49-16,88-46c32-25,60-49,62-54c2-4-7-15-20-24c-21-15-18-16,60-16
				c85,0,127-14,179-58c57-49,94-143,61-154c-21-7,0-38,26-38c22,0,28-8,46-66C2791.8,2008.1,2800.8,1959.1,2800.8,1936.1z
				 M2564.9,1808.2c114.8,18.8,151.8,61.8,114.8,134.8c-34,68-91,111-168,129c-30,7-67,25-89,43c-7.1,6.1-13.6,11.3-19.4,15.9
				c0.4-6.9,0.1-13.9-0.7-20.7c0.1-0.1,0.1-0.1,0.2-0.2c29-27,60-49,69-50c41-1,139-72,163-117c23-45,20-60-13-77
				c-37-20-161-33-161-18c0,6.5-12.8,19.6-32.8,35.6c-3.3-3.4-6.6-6.8-9.7-10.3c-1.5-1.7-3.6-4.5-4.6-5.9c-2.9-4.5-5.6-9-8.1-13.7
				c-0.8-1.8-2.1-4.7-2.5-6.1c-0.6-2.1-1.2-4.2-1.8-6.4c3.2-2.7,6.4-5.3,9.6-8.1c41-36,50-51,50-77c0-22.2-5.2-37.2-23.7-51.8
				c1.6-17.1,1.1-34.2-2.7-50.4c47,24.5,66.4,54.9,66.4,100.3v43L2564.9,1808.2z M2137.7,1260c28,0,34,3,23,10c-8,6-38,7-66,4
				c-50-6-52-5-58,22c-4,15-5,57-2,93c1.1,13,1.8,24.4,2.1,33.5c-3.1,4.8-5.9,9.7-8.4,14.7c-2.6-1.4-5.7-2.6-9.4-3.6
				c-4.1-2.5-8.4-4.8-12.8-7.1c-14-7.1-29-12.2-43.3-18.5c-2.5-1.2-6.2-3-9-4.6c-1.5-4.8-3.2-9.4-5.2-13.9
				c35.4-26.4,42-53.7,42-138.5c0-128-30-187-130-253c-19-13-36-32-38-42c-4-17-2-17,25-2c48,26,100,36,133,23c36-14,49-3,27,21
				s-21,43,2,89c11,21,23,55,27,76C2046.7,1218,2089.7,1260,2137.7,1260z M934.8,2364.9c-11,7.6-20.9,13.9-29,18.1
				c-47,25-84,20-160-23c-62-35-67-40-40-40c16,0,50,9,74,20s51,20,60,20c11.7,0,27.2-5.7,46.7-17.2
				C902,2352.7,918.1,2360.1,934.8,2364.9z M538.8,1514.1c11.1,7,20.8,13.5,29.5,19.7c-10.8,10.8-18.7,23-23.9,36.1
				c-27-22.2-59.1-33.3-88.6-25.9c-14,4-54,36-89,71c-58,60-86,78-86,57c0-4,5-13,11-19c9-9,8-28-1-76c-10-50-11-78-2-121
				c6-31,9-76,6-100c-4-25-2-52,5-62c10-18,11-18,17,4c10,35,29,26,65-30l34-53l3,33c3,25-7,51-36,100c-44,76-67,156-57,203l7,31
				l32-30c17-16,45-37,62-45c12.8-6.8,26.8-19.9,35.9-32.3c6.8,3.5,13.9,6.6,21.4,9.1c8.3,2.8,16.7,4.8,25.1,6.3
				C512.9,1497.2,521.8,1503.4,538.8,1514.1z"/>
			<path class="st0" d="M2679.7,1943c37-73,0-116-114.8-134.8l-64-11v-43c0-45.4-19.4-75.8-66.4-100.3c3.8,16.2,4.3,33.3,2.7,50.4
				c18.5,14.6,23.7,29.6,23.7,51.8c0,26-9,41-50,77c-3.2,2.8-6.4,5.4-9.6,8.1c0.6,2.2,1.2,4.3,1.8,6.4c0.4,1.4,1.7,4.3,2.5,6.1
				c2.5,4.7,5.2,9.2,8.1,13.7c1,1.4,3.1,4.2,4.6,5.9c3.1,3.5,6.4,6.9,9.7,10.3c20-16,32.8-29.1,32.8-35.6c0-15,124-2,161,18
				c33,17,36,32,13,77c-24,45-122,116-163,117c-9,1-40,23-69,50c-0.1,0.1-0.1,0.1-0.2,0.2c0.8,6.8,1.1,13.8,0.7,20.7
				c5.8-4.6,12.3-9.8,19.4-15.9c22-18,59-36,89-43C2588.7,2054,2645.7,2011,2679.7,1943z"/>
			<path class="st1" d="M2207,2629l-7-15.5c-12.3,4.6-26.2,5.7-47.2,4.6c-26-1-82,6-124,15s-94,17-114,17c-8.3,0-19.1,1.8-31,4.8
				l1.6,6.2c2.5-0.6,7.8,0.6,16.4,3c93,28,99,29,170,11C2120.1,2663.8,2167,2647.6,2207,2629z"/>
			<path class="st0" d="M2160.7,1270c11-7,5-10-23-10c-48,0-91-42-101-97c-4-21-16-55-27-76c-23-46-24-65-2-89s9-35-27-21
				c-33,13-85,3-133-23c-27-15-29-15-25,2c2,10,19,29,38,42c100,66,130,125,130,253c0,84.8-6.6,112.1-42,138.5
				c2,4.5,3.7,9.1,5.2,13.9c2.8,1.6,6.5,3.4,9,4.6c14.3,6.3,29.3,11.4,43.3,18.5c4.4,2.3,8.7,4.6,12.8,7.1c3.7,1,6.8,2.2,9.4,3.6
				c2.5-5,5.3-9.9,8.4-14.7c-0.3-9.1-1-20.5-2.1-33.5c-3-36-2-78,2-93c6-27,8-28,58-22C2122.7,1277,2152.7,1276,2160.7,1270z"/>
			<path class="st1" d="M1884.8,2717.1c16-12,17-17,6-37c-6.7-12.8-9.3-18.1-5.4-19l-1.6-6.2c-44.1,11-101.6,37.7-85,43.2
				c7,2,12,10,12,18C1810.8,2734.1,1860.8,2735.1,1884.8,2717.1z"/>
			<path class="st1" d="M1775.7,2706l-90-6c-50-4-102-10-116-14c-35-10-48,10-23,35c13,12,39,21,79,24c49,5,68,2,105-17L1775.7,2706
				z"/>
			<path class="st1" d="M1407.7,845c18,3,33,4,33,1c0-2-32-28-71-56c-39-29-84-64-100-78c-41-36-147-81-189-81c-29,0-21,5,49,29
				c47,16,92,36,100,45c13,13,12,14-16,6c-16-5-40-14-51-20s-29-11-39-11c-10,1,9,12,42,27c33,14,69,32,80,40c19,13,18,14-10,7
				c-17-4-41-11-54-16c-39-14-37,0,3,18c47,23,47,39-1,19c-40-17-79-44-158-110c-43-36-58-43-113-48c-38-4-62-3-62,3s16,10,37,10
				c20,0,33,3,30,7c-8,7-140,5-177-4c-40-9-10,12,35,25c22,6,64,14,93,18s70,13,90,21c36,13,35,13-33,7c-39-3-104-12-145-20
				s-100-14-130-13l-55,1l70,17c38,10,113,23,165,30s108,17,125,22c16,4,61,11,98,15c38,3,66,8,63,11c-8,8-298-18-317-28
				c-9-4-54-11-100-13c-86-5-77,0,41,23c158,31,323,55,555,82C1339.7,836,1390.7,842,1407.7,845z M1314.7,785c3,8,4,15,2,15
				s-9-7-16-15c-7-9-8-15-2-15C1303.7,770,1310.7,777,1314.7,785z"/>
			<path class="st1" d="M1440.7,881c0-6-15-11-33-11c-17,0-66-5-107-10c-41-6-127-17-190-25c-181-24-240-33-320-50
				c-41-8-113-22-160-30s-90-16-95-18c-6-1-12,3-14,8c-6,15,342,81,559,105c52,6,111,15,130,19C1270.7,884,1440.7,892,1440.7,881z"
				/>
			<path class="st1" d="M1428.7,770c32,0,3-44-84-124c-75-70.3-134.7-136.4-172.1-190.5l-20.9,4.5c24,40,130,167,211,253
				C1391.7,744,1421.7,770,1428.7,770z"/>
			<path class="st0" d="M1316.7,800c2,0,1-7-2-15c-4-8-11-15-16-15c-6,0-5,6,2,15C1307.7,793,1314.7,800,1316.7,800z"/>
			<path class="st1" d="M1222.7,626c36,19,43,18,23-3c-27-26-90-116-103-146c-19-45-14-55,9-17l20.9-4.5
				c-10.4-15.1-19.1-29.4-25.9-42.5c-12-24-23-33-41-33c-29,0-29,4-13,68C1110.7,521,1165.7,596,1222.7,626z"/>
			<path class="st1" d="M920.7,880c66,12,287,25,280,17c-3-3-46-11-95-16c-78-9-167-22-320-46c-108-17-262-48-277-56
				c-17-8-36,5-21,14c13,8,244,58,312,67C835.7,866,890.7,874,920.7,880z"/>
			<path class="st0" d="M905.8,2383c8.1-4.2,18-10.5,29-18.1c-16.7-4.8-32.8-12.2-48.3-22.1c-19.5,11.5-35,17.2-46.7,17.2
				c-9,0-36-9-60-20s-58-20-74-20c-27,0-22,5,40,40C821.8,2403,858.8,2408,905.8,2383z"/>
			<path class="st1" d="M751.7,934c36,7,94,8,88,1c-9-8-119-22-119-15C720.7,924,734.7,930,751.7,934z"/>
			<path class="st1" d="M827.7,899c30-1,24-4-27-11c-36-5-104-18-151-29c-48-10-97-18-110-18c-26,1-31,0,148,38
				C742.7,890,805.7,899,827.7,899z"/>
			<path class="st0" d="M568.3,1533.8c-8.7-6.2-18.4-12.7-29.5-19.7c-17-10.7-25.9-16.9-29.6-24c-8.4-1.5-16.8-3.5-25.1-6.3
				c-7.5-2.5-14.6-5.6-21.4-9.1c-9.1,12.4-23.1,25.5-35.9,32.3c-17,8-45,29-62,45l-32,30l-7-31c-10-47,13-127,57-203
				c29-49,39-75,36-100l-3-33l-34,53c-36,56-55,65-65,30c-6-22-7-22-17-4c-7,10-9,37-5,62c3,24,0,69-6,100c-9,43-8,71,2,121
				c9,48,10,67,1,76c-6,6-11,15-11,19c0,21,28,3,86-57c35-35,75-67,89-71c29.5-7.4,61.6,3.7,88.6,25.9
				C549.6,1556.8,557.5,1544.6,568.3,1533.8z"/>
			<path class="st1" d="M166.7,1825c5-13,0-43-25-140c-6-22-11-53-11-68s-9-49-21-74c-10.4-22.6-15.1-35.8-15.1-47.1l-12,0.4
				c0.3,10.3,0.7,21.5,1.1,33.7c4,119,10,160,32,228C140.7,1837,154.7,1856,166.7,1825z"/>
			<path class="st1" d="M130.7,1480c17,0,20-65,7-109l-14-44l-22,29c-20.1,25.6-22.7,32.8-19.1,140.3l12-0.4
				c0-8.3,2.5-15.6,7.1-24.9c10-21,13-23,16-8C120.7,1472,125.7,1480,130.7,1480z"/>
		</g>
		<g>
		</g>
	</g>
</g>
<g id="Layer_3">
	<circle class="st2" cx="69.3" cy="96.8" r="14.8"/>
	<circle class="st2" cx="69.5" cy="141.2" r="14.8"/>
	<circle class="st2" cx="69.5" cy="185.6" r="14.8"/>
	<circle class="st3" cx="115" cy="72.2" r="14.8"/>
	<circle class="st3" cx="115.1" cy="116.6" r="14.8"/>
	<circle class="st3" cx="115.1" cy="161" r="14.8"/>
	<circle class="st4" cx="165.4" cy="70.6" r="14.8"/>
	<circle class="st4" cx="165.5" cy="115" r="14.8"/>
	<circle class="st4" cx="165.5" cy="159.3" r="14.8"/>
	<circle class="st5" cx="214.2" cy="92.9" r="14.8"/>
	<circle class="st5" cx="214.3" cy="139.3" r="14.8"/>
</g>
<g id="Layer_2_00000044172493083061543650000010223054056013437114_">
	<line class="st6" x1="218.7" y1="89.2" x2="171" y2="68.2"/>
	<line class="st6" x1="218.7" y1="136.7" x2="170.3" y2="112.6"/>
	<line class="st6" x1="218.7" y1="89.2" x2="170.3" y2="112.6"/>
	<line class="st6" x1="218.7" y1="136.7" x2="170.3" y2="68.2"/>
	<line class="st6" x1="170.3" y1="157" x2="218.7" y2="136.7"/>
	<line class="st6" x1="218.7" y1="89.2" x2="170.3" y2="157"/>
	<line class="st6" x1="170.3" y1="68.2" x2="119.8" y2="69.2"/>
	<line class="st6" x1="170.3" y1="112.6" x2="119.8" y2="69.2"/>
	<line class="st6" x1="170.3" y1="68.2" x2="119.8" y2="113.6"/>
	<line class="st6" x1="119.8" y1="158" x2="171" y2="68.2"/>
	<line class="st6" x1="119.8" y1="113.6" x2="171.3" y2="113.1"/>
	<line class="st6" x1="119.8" y1="158" x2="171.3" y2="113.1"/>
	<line class="st6" x1="170.3" y1="157" x2="119.8" y2="113.6"/>
	<line class="st6" x1="119.8" y1="158" x2="170.3" y2="157"/>
	<line class="st6" x1="73.1" y1="93.8" x2="119.8" y2="68.2"/>
	<line class="st6" x1="73.1" y1="138.2" x2="119.8" y2="113.6"/>
	<line class="st6" x1="119.8" y1="69.2" x2="73.1" y2="138.2"/>
	<line class="st6" x1="73.1" y1="93.8" x2="119.8" y2="113.6"/>
	<line class="st6" x1="119.8" y1="69.2" x2="73.1" y2="182.6"/>
	<line class="st6" x1="73.1" y1="138.2" x2="119.8" y2="158"/>
	<line class="st6" x1="119.8" y1="113.6" x2="73.1" y2="182.6"/>
	<line class="st6" x1="119.8" y1="158" x2="73.1" y2="182.6"/>
	<line class="st6" x1="73.1" y1="93.8" x2="119.8" y2="158"/>
	<circle class="st7" cx="218.7" cy="89.2" r="14.8"/>
	<circle class="st7" cx="218.7" cy="136.7" r="14.8"/>
	<circle class="st7" cx="170.3" cy="68.2" r="14.8"/>
	<circle class="st7" cx="170.3" cy="112.6" r="14.8"/>
	<circle class="st7" cx="170.3" cy="157" r="14.8"/>
	<circle class="st7" cx="119.8" cy="69.2" r="14.8"/>
	<circle class="st7" cx="119.8" cy="113.6" r="14.8"/>
	<circle class="st7" cx="119.8" cy="158" r="14.8"/>
	<circle class="st7" cx="73.1" cy="93.8" r="14.8"/>
	<circle class="st7" cx="73.2" cy="138.2" r="14.8"/>
	<circle class="st7" cx="73.2" cy="182.6" r="14.8"/>
</g>
</svg>
