<svg xmlns="http://www.w3.org/2000/svg" xmlns:xlink="http://www.w3.org/1999/xlink" width="106" height="99" viewBox="0 0 106 99">
  <defs>
    <clipPath id="clip-path">
      <rect id="Rectangle_19" data-name="Rectangle 19" width="49.121" height="56.691" fill="none"/>
    </clipPath>
  </defs>
  <g id="AddFilterButton" transform="translate(-1281 -212)">
    <rect id="Rectangle_17" data-name="Rectangle 17" width="106" height="99" transform="translate(1281 212)" fill="none"/>
    <path id="Path_36" data-name="Path 36" d="M11.946,0H15.2L9.68-15.378H6.094L.572,0H3.806L4.818-2.926h6.116ZM10.1-5.39H5.654l2.222-6.424Zm6.38-.748C16.478-2.332,18.942.2,22.044.2a4.606,4.606,0,0,0,4-2V0h3.124V-16.28H26.048v5.786a5,5,0,0,0-3.982-1.892C18.942-12.386,16.478-9.944,16.478-6.138Zm9.592.044a3.282,3.282,0,0,1-3.234,3.586,3.331,3.331,0,0,1-3.212-3.63A3.251,3.251,0,0,1,22.836-9.68,3.282,3.282,0,0,1,26.07-6.094Zm5.324-.044C31.394-2.332,33.858.2,36.96.2a4.606,4.606,0,0,0,4-2V0h3.124V-16.28H40.964v5.786a5,5,0,0,0-3.982-1.892C33.858-12.386,31.394-9.944,31.394-6.138Zm9.592.044a3.282,3.282,0,0,1-3.234,3.586,3.331,3.331,0,0,1-3.212-3.63A3.251,3.251,0,0,1,37.752-9.68,3.282,3.282,0,0,1,40.986-6.094Z" transform="translate(1309 299)" fill="#303030"/>
    <g id="Group_13" data-name="Group 13" transform="translate(1309.44 219.309)">
      <path id="Path_20" data-name="Path 20" d="M65.056,51.791V80.042L89.522,65.916V37.665Z" transform="translate(-40.495 -23.446)" fill="#6d6f72"/>
      <g id="Group_4" data-name="Group 4">
        <g id="Group_3" data-name="Group 3" clip-path="url(#clip-path)">
          <path id="Path_21" data-name="Path 21" d="M65.056,80.042,89.522,65.917V37.666L65.056,51.792Z" transform="translate(-40.496 -23.446)" fill="none" stroke="#1a1818" stroke-linecap="round" stroke-linejoin="round" stroke-width="0.5"/>
        </g>
      </g>
      <line id="Line_162" data-name="Line 162" x1="24.466" y1="14.126" transform="translate(24.56 28.345)" fill="none" stroke="#1a1818" stroke-linecap="round" stroke-linejoin="round" stroke-width="0.25"/>
      <path id="Path_22" data-name="Path 22" d="M.25,65.917,24.716,80.042V51.791L.25,37.666Z" transform="translate(-0.156 -23.446)" fill="#96999c"/>
      <g id="Group_6" data-name="Group 6">
        <g id="Group_5" data-name="Group 5" clip-path="url(#clip-path)">
          <path id="Path_23" data-name="Path 23" d="M24.716,80.042.25,65.917V37.666L24.716,51.792Z" transform="translate(-0.155 -23.446)" fill="none" stroke="#1a1818" stroke-linecap="round" stroke-linejoin="round" stroke-width="0.5"/>
          <line id="Line_163" data-name="Line 163" y1="14.123" x2="24.466" transform="translate(0.094 28.345)" fill="none" stroke="#1a1818" stroke-linecap="round" stroke-linejoin="round" stroke-width="0.25"/>
        </g>
      </g>
      <path id="Path_24" data-name="Path 24" d="M.25,14.375,24.716,28.5,49.182,14.375,24.716.25Z" transform="translate(-0.156 -0.155)" fill="#aeb0b3"/>
      <g id="Group_8" data-name="Group 8">
        <g id="Group_7" data-name="Group 7" clip-path="url(#clip-path)">
          <path id="Path_25" data-name="Path 25" d="M.25,14.376,24.716.25,49.182,14.376,24.716,28.5Z" transform="translate(-0.156 -0.156)" fill="none" stroke="#1a1818" stroke-linecap="round" stroke-linejoin="round" stroke-width="0.5"/>
        </g>
      </g>
      <line id="Line_164" data-name="Line 164" y2="28.251" transform="translate(24.56 0.095)" fill="none" stroke="#1a1818" stroke-linecap="round" stroke-linejoin="round" stroke-width="0.25"/>
      <path id="Path_26" data-name="Path 26" d="M65.056,78.657l17.633-10.18V48.116L65.056,58.3Z" transform="translate(-40.496 -29.951)" fill="#c7c9cb"/>
      <path id="Path_27" data-name="Path 27" d="M65.056,78.657l17.633-10.18V48.116L65.056,58.3Z" transform="translate(-40.496 -29.951)" fill="none" stroke="#242424" stroke-linecap="round" stroke-linejoin="round" stroke-width="0.25"/>
      <path id="Path_28" data-name="Path 28" d="M35.983,78.657,18.35,68.476V48.116L35.983,58.3Z" transform="translate(-11.422 -29.951)" fill="#e0e1e3"/>
      <path id="Path_29" data-name="Path 29" d="M35.983,78.657,18.35,68.476V48.116L35.983,58.3Z" transform="translate(-11.422 -29.951)" fill="none" stroke="#242424" stroke-linecap="round" stroke-linejoin="round" stroke-width="0.25"/>
      <path id="Path_30" data-name="Path 30" d="M18.35,31.33,35.982,21.15,53.615,31.33,35.982,41.51Z" transform="translate(-11.422 -13.165)" fill="#edeeef"/>
      <path id="Path_31" data-name="Path 31" d="M18.35,31.33,35.982,21.15,53.615,31.33,35.982,41.51Z" transform="translate(-11.422 -13.165)" fill="none" stroke="#242424" stroke-linecap="round" stroke-linejoin="round" stroke-width="0.25"/>
      <g id="Group_10" data-name="Group 10">
        <g id="Group_9" data-name="Group 9" clip-path="url(#clip-path)">
          <line id="Line_165" data-name="Line 165" y1="28.251" transform="translate(24.56 28.345)" fill="none" stroke="#1a1818" stroke-linecap="round" stroke-linejoin="round" stroke-width="0.5"/>
        </g>
      </g>
      <line id="Line_166" data-name="Line 166" x1="24.466" y2="14.126" transform="translate(24.56 14.22)" fill="none" stroke="#1a1818" stroke-linecap="round" stroke-linejoin="round" stroke-width="0.5"/>
      <g id="Group_12" data-name="Group 12">
        <g id="Group_11" data-name="Group 11" clip-path="url(#clip-path)">
          <line id="Line_167" data-name="Line 167" x2="24.466" y2="14.126" transform="translate(0.094 14.22)" fill="none" stroke="#1a1818" stroke-linecap="round" stroke-linejoin="round" stroke-width="0.5"/>
        </g>
      </g>
      <path id="Path_32" data-name="Path 32" d="M98.107,108.385H92.5v-6.854H88.764v6.854H81.907v3.736h6.854v6.854H92.5v-6.852h6.854v-3.736Z" transform="translate(-50.985 -63.2)" fill="#53a634"/>
      <path id="Path_33" data-name="Path 33" d="M98.107,108.385H92.5v-6.854H88.764v6.854H81.907v3.736h6.854v6.854H92.5v-6.852h6.854v-3.736Z" transform="translate(-50.985 -63.2)" fill="none" stroke="#242424" stroke-width="1"/>
    </g>
  </g>
</svg>
