<svg xmlns="http://www.w3.org/2000/svg" xmlns:xlink="http://www.w3.org/1999/xlink" width="106" height="99" viewBox="0 0 106 99">
  <defs>
    <clipPath id="clip-path">
      <rect id="Rectangle_19" data-name="Rectangle 19" width="49.121" height="56.691" fill="none"/>
    </clipPath>
  </defs>
  <g id="RemoveFilterButton" transform="translate(-1281 -212)">
    <rect id="Rectangle_17" data-name="Rectangle 17" width="106" height="99" transform="translate(1281 212)" fill="none"/>
    <path id="Path_37" data-name="Path 37" d="M9.658-10.582c0,1.386-.77,2.288-2.486,2.288H4.6V-12.8H7.172C8.888-12.8,9.658-11.946,9.658-10.582Zm-8.14-4.774V0H4.6V-5.984H6.05L9.438,0H13L9.328-6.226a4.434,4.434,0,0,0,3.5-4.422c0-2.574-1.848-4.708-5.544-4.708Zm19.338,5.5a2.708,2.708,0,0,1,2.9,2.618H17.974A2.83,2.83,0,0,1,20.856-9.856Zm5.786,6.028H23.32a2.511,2.511,0,0,1-2.442,1.474A2.852,2.852,0,0,1,17.952-5.17h8.91a7.2,7.2,0,0,0,.088-1.188,5.722,5.722,0,0,0-6.006-6.028c-3.608,0-6.116,2.442-6.116,6.292A5.9,5.9,0,0,0,20.944.2,5.665,5.665,0,0,0,26.642-3.828ZM46.244,0h3.08V-7.15c0-3.366-2.068-5.214-4.994-5.214a4.826,4.826,0,0,0-4.18,2.332,4.665,4.665,0,0,0-4.29-2.332,4.438,4.438,0,0,0-3.586,1.65v-1.474h-3.08V0h3.08V-6.732c0-1.936,1.078-2.948,2.75-2.948,1.628,0,2.706,1.012,2.706,2.948V0h3.08V-6.732c0-1.936,1.078-2.948,2.728-2.948,1.628,0,2.706,1.012,2.706,2.948ZM64.02-6.094a6.023,6.023,0,0,0-6.27-6.292,6.023,6.023,0,0,0-6.27,6.292A5.966,5.966,0,0,0,57.662.2,6.093,6.093,0,0,0,64.02-6.094Zm-9.416,0c0-2.442,1.474-3.608,3.1-3.608s3.146,1.166,3.146,3.608c0,2.42-1.562,3.608-3.19,3.608C56.012-2.486,54.6-3.674,54.6-6.094Zm10.384-6.094L69.476,0h3.74l4.51-12.188H74.448l-3.08,9.35-3.08-9.35ZM84.7-9.856a2.708,2.708,0,0,1,2.9,2.618H81.818A2.83,2.83,0,0,1,84.7-9.856Zm5.786,6.028H87.164a2.511,2.511,0,0,1-2.442,1.474A2.852,2.852,0,0,1,81.8-5.17h8.91a7.2,7.2,0,0,0,.088-1.188,5.722,5.722,0,0,0-6.006-6.028c-3.608,0-6.116,2.442-6.116,6.292A5.9,5.9,0,0,0,84.788.2,5.665,5.665,0,0,0,90.486-3.828Z" transform="translate(1288 299)" fill="#303030"/>
    <g id="Group_13" data-name="Group 13" transform="translate(1309.44 219.309)">
      <path id="Path_20" data-name="Path 20" d="M65.056,51.791V80.042L89.522,65.916V37.665Z" transform="translate(-40.495 -23.446)" fill="#6d6f72"/>
      <g id="Group_4" data-name="Group 4">
        <g id="Group_3" data-name="Group 3" clip-path="url(#clip-path)">
          <path id="Path_21" data-name="Path 21" d="M65.056,80.042,89.522,65.917V37.666L65.056,51.792Z" transform="translate(-40.496 -23.446)" fill="none" stroke="#1a1818" stroke-linecap="round" stroke-linejoin="round" stroke-width="0.5"/>
        </g>
      </g>
      <line id="Line_162" data-name="Line 162" x1="24.466" y1="14.126" transform="translate(24.56 28.345)" fill="none" stroke="#1a1818" stroke-linecap="round" stroke-linejoin="round" stroke-width="0.25"/>
      <path id="Path_22" data-name="Path 22" d="M.25,65.917,24.716,80.042V51.791L.25,37.666Z" transform="translate(-0.156 -23.446)" fill="#96999c"/>
      <g id="Group_6" data-name="Group 6">
        <g id="Group_5" data-name="Group 5" clip-path="url(#clip-path)">
          <path id="Path_23" data-name="Path 23" d="M24.716,80.042.25,65.917V37.666L24.716,51.792Z" transform="translate(-0.155 -23.446)" fill="none" stroke="#1a1818" stroke-linecap="round" stroke-linejoin="round" stroke-width="0.5"/>
          <line id="Line_163" data-name="Line 163" y1="14.123" x2="24.466" transform="translate(0.094 28.345)" fill="none" stroke="#1a1818" stroke-linecap="round" stroke-linejoin="round" stroke-width="0.25"/>
        </g>
      </g>
      <path id="Path_24" data-name="Path 24" d="M.25,14.375,24.716,28.5,49.182,14.375,24.716.25Z" transform="translate(-0.156 -0.155)" fill="#aeb0b3"/>
      <g id="Group_8" data-name="Group 8">
        <g id="Group_7" data-name="Group 7" clip-path="url(#clip-path)">
          <path id="Path_25" data-name="Path 25" d="M.25,14.376,24.716.25,49.182,14.376,24.716,28.5Z" transform="translate(-0.156 -0.156)" fill="none" stroke="#1a1818" stroke-linecap="round" stroke-linejoin="round" stroke-width="0.5"/>
        </g>
      </g>
      <line id="Line_164" data-name="Line 164" y2="28.251" transform="translate(24.56 0.095)" fill="none" stroke="#1a1818" stroke-linecap="round" stroke-linejoin="round" stroke-width="0.25"/>
      <path id="Path_26" data-name="Path 26" d="M65.056,78.657l17.633-10.18V48.116L65.056,58.3Z" transform="translate(-40.496 -29.951)" fill="#c7c9cb"/>
      <path id="Path_27" data-name="Path 27" d="M65.056,78.657l17.633-10.18V48.116L65.056,58.3Z" transform="translate(-40.496 -29.951)" fill="none" stroke="#242424" stroke-linecap="round" stroke-linejoin="round" stroke-width="0.25"/>
      <path id="Path_28" data-name="Path 28" d="M35.983,78.657,18.35,68.476V48.116L35.983,58.3Z" transform="translate(-11.422 -29.951)" fill="#e0e1e3"/>
      <path id="Path_29" data-name="Path 29" d="M35.983,78.657,18.35,68.476V48.116L35.983,58.3Z" transform="translate(-11.422 -29.951)" fill="none" stroke="#242424" stroke-linecap="round" stroke-linejoin="round" stroke-width="0.25"/>
      <path id="Path_30" data-name="Path 30" d="M18.35,31.33,35.982,21.15,53.615,31.33,35.982,41.51Z" transform="translate(-11.422 -13.165)" fill="#edeeef"/>
      <path id="Path_31" data-name="Path 31" d="M18.35,31.33,35.982,21.15,53.615,31.33,35.982,41.51Z" transform="translate(-11.422 -13.165)" fill="none" stroke="#242424" stroke-linecap="round" stroke-linejoin="round" stroke-width="0.25"/>
      <g id="Group_10" data-name="Group 10">
        <g id="Group_9" data-name="Group 9" clip-path="url(#clip-path)">
          <line id="Line_165" data-name="Line 165" y1="28.251" transform="translate(24.56 28.345)" fill="none" stroke="#1a1818" stroke-linecap="round" stroke-linejoin="round" stroke-width="0.5"/>
        </g>
      </g>
      <line id="Line_166" data-name="Line 166" x1="24.466" y2="14.126" transform="translate(24.56 14.22)" fill="none" stroke="#1a1818" stroke-linecap="round" stroke-linejoin="round" stroke-width="0.5"/>
      <g id="Group_12" data-name="Group 12">
        <g id="Group_11" data-name="Group 11" clip-path="url(#clip-path)">
          <line id="Line_167" data-name="Line 167" x2="24.466" y2="14.126" transform="translate(0.094 14.22)" fill="none" stroke="#1a1818" stroke-linecap="round" stroke-linejoin="round" stroke-width="0.5"/>
        </g>
      </g>
    </g>
    <g id="Rectangle_24" data-name="Rectangle 24" transform="translate(1342 264)" fill="#f44" stroke="#303030" stroke-width="1">
      <rect width="17" height="5" stroke="none"/>
      <rect x="0.5" y="0.5" width="16" height="4" fill="none"/>
    </g>
  </g>
</svg>
