<svg xmlns="http://www.w3.org/2000/svg" width="110.484" height="73.764" viewBox="0 0 110.484 73.764">
  <g id="AddLayerButton" transform="translate(-1568.769 -105)">
    <path id="Path_35" data-name="Path 35" d="M-43.857,0H-40.6l-5.522-15.378h-3.586L-55.231,0H-52l1.012-2.926h6.116ZM-45.7-5.39h-4.444l2.222-6.424Zm6.38-.748C-39.325-2.332-36.861.2-33.759.2a4.606,4.606,0,0,0,4-2V0h3.124V-16.28h-3.124v5.786a5,5,0,0,0-3.982-1.892C-36.861-12.386-39.325-9.944-39.325-6.138Zm9.592.044a3.282,3.282,0,0,1-3.234,3.586,3.331,3.331,0,0,1-3.212-3.63A3.251,3.251,0,0,1-32.967-9.68,3.282,3.282,0,0,1-29.733-6.094Zm5.324-.044C-24.409-2.332-21.945.2-18.843.2a4.606,4.606,0,0,0,4-2V0h3.124V-16.28h-3.124v5.786a5,5,0,0,0-3.982-1.892C-21.945-12.386-24.409-9.944-24.409-6.138Zm9.592.044a3.282,3.282,0,0,1-3.234,3.586,3.331,3.331,0,0,1-3.212-3.63A3.251,3.251,0,0,1-18.051-9.68,3.282,3.282,0,0,1-14.817-6.094Zm11.352-9.262V0h8.14V-2.442H-.385V-15.356ZM5.841-6.138C5.841-2.332,8.305.2,11.385.2a4.807,4.807,0,0,0,4.048-1.98V0h3.1V-12.188h-3.1v1.738a4.82,4.82,0,0,0-4.026-1.936C8.305-12.386,5.841-9.944,5.841-6.138Zm9.592.044A3.282,3.282,0,0,1,12.2-2.508a3.331,3.331,0,0,1-3.212-3.63A3.251,3.251,0,0,1,12.2-9.68,3.282,3.282,0,0,1,15.433-6.094Zm11.308,2.42L23.6-12.188H20.141L25.025-.308l-2.64,6.072h3.278l7.546-17.952H29.931ZM40.1-9.856A2.708,2.708,0,0,1,43-7.238H37.213A2.83,2.83,0,0,1,40.1-9.856Zm5.786,6.028H42.559a2.511,2.511,0,0,1-2.442,1.474A2.852,2.852,0,0,1,37.191-5.17H46.1a7.2,7.2,0,0,0,.088-1.188,5.722,5.722,0,0,0-6.006-6.028c-3.608,0-6.116,2.442-6.116,6.292A5.9,5.9,0,0,0,40.183.2,5.665,5.665,0,0,0,45.881-3.828Zm5.632-2.244c0-2.354,1.1-3.058,2.926-3.058h.814v-3.234a4.227,4.227,0,0,0-3.74,2.068v-1.892h-3.08V0h3.08Z" transform="translate(1624 173)" fill="#303030"/>
    <path id="Icon_awesome-plus" data-name="Icon awesome-plus" d="M13.444,7.938H8.79V2.25h-3.1V7.938H0v3.1H5.688v5.688h3.1V11.04h5.688v-3.1Z" transform="translate(1645 124.442)" fill="#50b438" stroke="#303030" stroke-width="1"/>
    <g id="Ellipse_27" data-name="Ellipse 27" transform="translate(1616 105)" fill="#fff" stroke="#303030" stroke-width="1">
      <circle cx="6" cy="6" r="6" stroke="none"/>
      <circle cx="6" cy="6" r="5.5" fill="none"/>
    </g>
    <g id="Ellipse_28" data-name="Ellipse 28" transform="translate(1616 119)" fill="#fff" stroke="#303030" stroke-width="1">
      <circle cx="6" cy="6" r="6" stroke="none"/>
      <circle cx="6" cy="6" r="5.5" fill="none"/>
    </g>
    <g id="Ellipse_29" data-name="Ellipse 29" transform="translate(1616 133)" fill="#fff" stroke="#303030" stroke-width="1">
      <circle cx="6" cy="6" r="6" stroke="none"/>
      <circle cx="6" cy="6" r="5.5" fill="none"/>
    </g>
  </g>
</svg>
