<svg id="RemoveLayerButton" xmlns="http://www.w3.org/2000/svg" width="155.474" height="73.764" viewBox="0 0 155.474 73.764">
  <path id="Path_34" data-name="Path 34" d="M-69.113-10.582c0,1.386-.77,2.288-2.486,2.288h-2.574V-12.8H-71.6C-69.883-12.8-69.113-11.946-69.113-10.582Zm-8.14-4.774V0h3.08V-5.984h1.452L-69.333,0h3.564l-3.674-6.226a4.434,4.434,0,0,0,3.5-4.422c0-2.574-1.848-4.708-5.544-4.708Zm19.338,5.5a2.708,2.708,0,0,1,2.9,2.618H-60.8A2.83,2.83,0,0,1-57.915-9.856Zm5.786,6.028h-3.322a2.511,2.511,0,0,1-2.442,1.474A2.852,2.852,0,0,1-60.819-5.17h8.91a7.2,7.2,0,0,0,.088-1.188,5.722,5.722,0,0,0-6.006-6.028c-3.608,0-6.116,2.442-6.116,6.292A5.9,5.9,0,0,0-57.827.2,5.665,5.665,0,0,0-52.129-3.828ZM-32.527,0h3.08V-7.15c0-3.366-2.068-5.214-4.994-5.214a4.826,4.826,0,0,0-4.18,2.332,4.665,4.665,0,0,0-4.29-2.332,4.438,4.438,0,0,0-3.586,1.65v-1.474h-3.08V0h3.08V-6.732c0-1.936,1.078-2.948,2.75-2.948,1.628,0,2.706,1.012,2.706,2.948V0h3.08V-6.732c0-1.936,1.078-2.948,2.728-2.948,1.628,0,2.706,1.012,2.706,2.948Zm17.776-6.094a6.023,6.023,0,0,0-6.27-6.292,6.023,6.023,0,0,0-6.27,6.292A5.966,5.966,0,0,0-21.109.2,6.093,6.093,0,0,0-14.751-6.094Zm-9.416,0c0-2.442,1.474-3.608,3.1-3.608s3.146,1.166,3.146,3.608c0,2.42-1.562,3.608-3.19,3.608C-22.759-2.486-24.167-3.674-24.167-6.094Zm10.384-6.094L-9.295,0h3.74l4.51-12.188H-4.323L-7.4-2.838l-3.08-9.35ZM5.929-9.856a2.708,2.708,0,0,1,2.9,2.618H3.047A2.83,2.83,0,0,1,5.929-9.856Zm5.786,6.028H8.393A2.511,2.511,0,0,1,5.951-2.354,2.852,2.852,0,0,1,3.025-5.17h8.91a7.2,7.2,0,0,0,.088-1.188,5.722,5.722,0,0,0-6.006-6.028C2.409-12.386-.1-9.944-.1-6.094A5.9,5.9,0,0,0,6.017.2,5.665,5.665,0,0,0,11.715-3.828ZM19.5-15.356V0h8.14V-2.442h-5.06V-15.356Zm9.306,9.218C28.809-2.332,31.273.2,34.353.2A4.807,4.807,0,0,0,38.4-1.782V0h3.1V-12.188H38.4v1.738a4.82,4.82,0,0,0-4.026-1.936C31.273-12.386,28.809-9.944,28.809-6.138Zm9.592.044a3.282,3.282,0,0,1-3.234,3.586,3.331,3.331,0,0,1-3.212-3.63A3.251,3.251,0,0,1,35.167-9.68,3.282,3.282,0,0,1,38.4-6.094Zm11.308,2.42-3.146-8.514H43.109L47.993-.308l-2.64,6.072h3.278l7.546-17.952H52.9ZM63.063-9.856a2.708,2.708,0,0,1,2.9,2.618H60.181A2.83,2.83,0,0,1,63.063-9.856Zm5.786,6.028H65.527a2.511,2.511,0,0,1-2.442,1.474A2.852,2.852,0,0,1,60.159-5.17h8.91a7.2,7.2,0,0,0,.088-1.188,5.722,5.722,0,0,0-6.006-6.028c-3.608,0-6.116,2.442-6.116,6.292A5.9,5.9,0,0,0,63.151.2,5.665,5.665,0,0,0,68.849-3.828Zm5.632-2.244c0-2.354,1.1-3.058,2.926-3.058h.814v-3.234a4.227,4.227,0,0,0-3.74,2.068v-1.892H71.4V0h3.08Z" transform="translate(77.253 68)" fill="#303030"/>
  <g id="Ellipse_11" data-name="Ellipse 11" transform="translate(71.253)" fill="#fff" stroke="#303030" stroke-width="1">
    <circle cx="6" cy="6" r="6" stroke="none"/>
    <circle cx="6" cy="6" r="5.5" fill="none"/>
  </g>
  <g id="Rectangle_13" data-name="Rectangle 13" transform="translate(85.253 27)" fill="#f44" stroke="#303030" stroke-width="1">
    <rect width="17" height="5" stroke="none"/>
    <rect x="0.5" y="0.5" width="16" height="4" fill="none"/>
  </g>
  <g id="Ellipse_25" data-name="Ellipse 25" transform="translate(71.253 14)" fill="#fff" stroke="#303030" stroke-width="1">
    <circle cx="6" cy="6" r="6" stroke="none"/>
    <circle cx="6" cy="6" r="5.5" fill="none"/>
  </g>
  <g id="Ellipse_26" data-name="Ellipse 26" transform="translate(71.253 28)" fill="#fff" stroke="#303030" stroke-width="1">
    <circle cx="6" cy="6" r="6" stroke="none"/>
    <circle cx="6" cy="6" r="5.5" fill="none"/>
  </g>
</svg>
