<?xml version="1.0" encoding="utf-8"?>
<!-- Generator: Adobe Illustrator 26.0.2, SVG Export Plug-In . SVG Version: 6.00 Build 0)  -->
<svg version="1.1" xmlns="http://www.w3.org/2000/svg" xmlns:xlink="http://www.w3.org/1999/xlink" x="0px" y="0px"
	 viewBox="0 0 288 300" style="enable-background:new 0 0 288 300;" xml:space="preserve">
<style type="text/css">
	.st0{fill:#3B3B3B;}
	.st1{fill:#FFFAD6;}
	.st2{fill:#DBFFD4;}
	.st3{fill:#CFE9FF;}
	.st4{fill:#FCE6FF;}
	.st5{fill:none;stroke:#252868;stroke-width:2;stroke-miterlimit:10;}
	.st6{fill:#FFFFFF;stroke:#252868;stroke-width:2;stroke-miterlimit:10;}
</style>
<g id="Layer_1">
	<g transform="translate(0.000000,300.000000) scale(0.100000,-0.100000)">
		<path class="st0" d="M2815.7,2095c-8,17-23,55-35,87c-26,71-69,135-113,167c-18,15-57,54-85,88c-55,66-104,104-192,148
			c-30,15-81,43-112,61c-65,40-225,94-275,94c-19,0-47,7-64,15c-17,10-68,18-122,21c-50,3-93,7-95,9c-2,1-83,3-180,3
			c-167,1-284-10-307-28c-6-4-26-10-45-14c-19-3-48-13-64-21c-15-8-56-19-91-25c-72-12-134-37-191-78c-22-16-51-33-65-37
			c-56-18-141-70-197-123c-8-7-47-37-86-66c-89-67-147-128-179-186c-13-25-47-69-74-98c-51-53-94-129-107-189c-4-18-12-35-17-38
			c-10-7-33-55-53-113c-25-70-38-237-33-426l5-178l52-107c66-134,122-195,199-218c30-8,71-13,92-10c35,5,38,3,49-27
			c19-56,80-134,133-169c96-65,218-83,439-65c49,4,88,6,88,5c0-1-14-38-30-80c-17-43-30-90-30-104c0-53,51-77,113-54
			c14,6,38,34,57,68c20,35,84,110,161,188c118,120,129,135,141,184c7,32,19,56,31,63c24,13,152,1,189-18c41-21,143-17,220,10
			c135,46,280,167,294,244c3,20,15,52,27,70c11,19,25,70,31,114l12,81l64,2c59,1,86,8,218,52c61,21,137,85,171,144
			c26,46,36,78,70,224C2858.7,1885,2852.7,2013,2815.7,2095z M1546.7,2721c13,12,39,21,79,24c49,5,68,2,105-17l45-22l-90-6
			c-50-4-102-10-116-14C1534.7,2676,1521.7,2696,1546.7,2721z M83.7,1530c4,119,10,160,32,228c25,79,39,98,51,67c5-13,0-43-25-140
			c-6-22-11-53-11-68s-9-49-21-74c-18-39-19-50-8-72c10-21,13-23,16-8c3,9,8,17,13,17c17,0,20-65,7-109l-14-44l-22,29
			C79.7,1384,78.7,1390,83.7,1530z M470.7,830c0,6,7,10,16,10c8,0,12-4,9-10c-3-5-10-10-16-10C474.7,820,470.7,825,470.7,830z
			 M487.7,793c13,8,244,58,312,67c36,6,91,14,121,20c66,12,287,25,280,17c-3-3-46-11-95-16c-78-9-167-22-320-46
			c-108-17-262-48-277-56C491.7,771,472.7,784,487.7,793z M827.7,899c30-1,24-4-27-11c-36-5-104-18-151-29c-48-10-97-18-110-18
			c-26,1-31,0,148,38C742.7,890,805.7,899,827.7,899z M720.7,920c0,4,14,10,31,14c36,7,94,8,88,1C830.7,927,720.7,913,720.7,920z
			 M890.7,910c0,6,18,10,41,10c24,0,38-4,34-10c-3-5-22-10-41-10C905.7,900,890.7,905,890.7,910z M535.7,737c-6-1-12,3-14,8
			c-6,15,342,81,559,105c52,6,111,15,130,19c60,15,230,23,230,12c0-6-15-11-33-11c-17,0-66-5-107-10c-41-6-127-17-190-25
			c-181-24-240-33-320-50c-41-8-113-22-160-30S540.7,739,535.7,737z M583.7,714c-4,3,2,6,13,5c11,0,14-3,6-6
			C595.7,710,586.7,711,583.7,714z M1080.7,631c-29,0-21,5,49,29c47,16,92,36,100,45c13,13,12,14-16,6c-16-5-40-14-51-20
			c-11-6-29-11-39-11c-10,1,9,12,42,27c33,14,69,32,80,40c19,13,18,14-10,7c-17-4-41-11-54-16c-39-14-37,0,3,18c47,23,47,39-1,19
			c-40-17-79-44-158-110c-43-36-58-43-113-48c-38-4-62-3-62,3s16,10,37,10c20,0,33,3,30,7c-8,7-140,5-177-4c-40-9-10,12,35,25
			c22,6,64,14,93,18c29,4,70,13,90,21c36,13,35,13-33,7c-39-3-104-12-145-20c-41-8-100-14-130-13l-55,1l70,17c38,10,113,23,165,30
			c52,7,108,17,125,22c16,4,61,11,98,15c38,3,66,8,63,11c-8,8-298-18-317-28c-9-4-54-11-100-13c-86-5-77,0,41,23
			c158,31,323,55,555,82c44,5,95,11,112,14c18,3,33,4,33,1c0-2-32-28-71-56c-39-29-84-64-100-78C1228.7,676,1122.7,631,1080.7,631z
			 M1344.7,646c-96-90-167-173-198-233c-12-24-23-33-41-33c-29,0-29,4-13,68c18,73,73,148,130,178c36,19,43,18,23-3
			c-27-26-90-116-103-146c-19-45-14-55,9-17c24,40,130,167,211,253c29,31,59,57,66,57C1460.7,770,1431.7,726,1344.7,646z
			 M2799.7,1895l-18,45c-10,25-24,64-30,86c-7,28-23,50-45,68c-19,14-37,39-41,54c-7,32-64,92-110,115c-27,14-106,32-217,51
			c-5.5,1.1-10,2-14,3c18.3-17.8,33.9-37.5,45.6-59.4c9-0.7,17.7-1.5,25.4-2.6c107-16,147-29,185-62c40-34,43-55,14-79
			c-11-9-5-13,25-23c53-16,91-62,91-111c0-21,5-40,10-42c16-5,40-81,46-147c8-75-11-162-48-223c-33-53-111-117-168-137
			c-115-41-208-52-229-27c-14,16-11,19,44,36c22,7,46,17,53,23c7,5,37,9,67,8c54-1,75,12,35,22c-37,10-21,24,70,61
			c95,40,130,72,130,120c0,25-3,23-48-24c-27-28-56-50-65-50c-14,0-14,4,3,43c30,66,24,73-19,20c-76-97-224-194-298-196
			c-9.2-0.3-16.8,0.4-24.5,3.3c-4.9-15.3-11.7-30-20.2-42.6c-2-3-4.2-5.8-6.4-8.6c23.8-61.1,23.2-165.6-7.9-218.2
			c-16-27-24-31-59-31c-27,0-49-8-70-24c-37-30-28-42,19-25c31,11,38,11,52-3c43-43-40-141-180-212c-67-35-87-40-161-44
			c-81-4-84-4-110,23c-28,31-58,121-53,157c3,21,9,23,68,26c62,3,90,14,90,34c0,6-7,7-16,4c-9-3-43-1-76,6c-45,9-63,9-77,1
			c-25-16-31-7-19,28c4.4,13.3,14.1,25.8,27.1,37.1c-21.7,4.6-43.4,8-65.8,5.5c-7.8-0.9-15.6-2.2-23.4-3.7
			c-19.2-15.1-42.9-24.9-68.4-27.7c-12-6-23.9-12.2-34.5-18.2c-29-17.2-56.9-31-67.2-33.5c-14.1-13.1-29.9-24.4-45.7-35.2l0.9-0.3
			l44-17l67,32c67,32,67,32,93,13c29-21,66-90,75-140c11-61-47-73-154-31c-51,19-73,42-65,67c8,26,5,26-49,2c-70-33-132-44-194-37
			c-31,4-71,7-87,6c-146.3-6.3-192.7-0.5-267.2,43.5c-23.3-4.6-45.9-6.9-68.8-6.5c-1.4-3.3-5.6-6.6-13-11.9c-56-41-203-41-282,1
			c-40,21-44,22-44,5c0-19,39-61,58-61c17,0,15-15-3-30c-23-19-134-24-180-7c-42,15-90,71-80,94c3,7,8,20,11,28c8,20-20,20-36,0
			c-19-23-30-8-30,44c0,53-7,66-26,50c-18-15-53,44-56,91c-5,115,27,117,106,5c26-35,62-76,80-90c26-19,35-35,39-67
			c3-22,13-48,21-57c15-14,16-13,10,17c-10,49,7,62,81,62c48,0,68,5,89,21l1,0.8c-9,15.6-16.6,32.8-22.9,51.4
			c-14.3-20.9-23.7-23.2-61.1-23.2c-66,0-110,17-154,59c-49,47-91,134-83,172c3,16,9,42,12,59c4,18,0,46-11,72c-21,54-14,152,21,282
			c34,130,57,148,123,99c74-57,126-138,116-183c-6-27,8-45,17-20c1,5,18,10,36,12c43,3,49,13,18,33c-34,23-46,64-40,142
			c5,70-7,112-35,121c-10,3-12,0-7-14c16-41,17-79,2-99c-14-20-15-19-53,16c-72,69-117,77-165,29c-16-16-31-30-34-30c-2,0-4,18-4,40
			c0,57,39,129,101,184c73,66,131,76,137,25c3-30-29-72-64-83c-20-6-64-46-52-46c4,0,29,11,58,24c74,34,100,62,100,106
			c0,45-24,70-68,70c-18,0-32,4-32,9c0,16,111,131,126,131c8,0,21-18,30-39c6.6-16,18.2-32.7,32.5-47.5c11.2,12,25.2,21,40.7,27
			c-32.7,33.4-37.5,82.8-7.2,127.6c31,44,132,118,193,141c27,10,68,20,90,23c96,10,119-17,59-67c-21-18-37-35-34-38c3-3,23,2,45,10
			c39.8,15.4,68.4,17.7,124.9,6.7c14,14.4,31,24.6,49.4,30.5c-9.9,2.3-20.6,4.5-32.3,6.8c-63,12-69,16-82,46c-10,24-22,35-45,39
			c-43,9-37,20,17,37c84,26,90,26,115,0c21-23,28-24,81-18c72,8,103-9,112-59c1.1-5.1,2.9-11.2,5-17.6c17.4,1,35.4,0.2,53.8-2.4
			c-3.5,8.1-7.2,18.5-11.8,32c-26,81-65,106-147,98c-59-6-60-6-31,10c16,9,69,27,118,40c53,14,117,24,158,24h68l-3-50
			c-1-29-9-58-19-69c-9-10-16-21-16-24c0-13,27-7,39,7c39,47,234,73,289,39c44.7-27.9,81.6-70.1,103.7-115.3c4,0.7,7.9,1.4,12,2
			c11.1,1.5,22.3,2,33.5,2c-0.1,0.1-0.1,0.2-0.2,0.3c-8,12-18,33-22,46c-6,20-3,22,32,21c45-1,153-22,170-32c24-15,0-37-60-54
			l-16.2-4.5c6.8-3.2,13.5-6.7,20.1-10.6c9-5.4,17.6-11.4,25.8-17.9c108.8-21.6,170.3-60.4,173.1-108.6
			c13.5-7.3,26.5-15.6,38.8-24.6c4.1-3,8-6.1,12-9.2c-2.5,8.4-4.2,20.4-6.5,38.4c-6,50-11,59-46,84c-21,16-53,32-69,35
			c-21,5-29,11-25,22c3,8,6,26,6,40c0,25,2,25,47,20l48-5l-28,24c-23,19-38,24-75,22c-26-1-82,6-124,15c-42,9-94,17-114,17
			c-39,0-137,41-116,48c7,2,12,10,12,18c0,18,50,19,74,1c16-12,17-17,6-37c-11-21-11-22,11-16c93,28,99,29,170,11
			c98-23,190-66,231-108c25-25,39-32,46-25c13,13,78-24,142-81c77-69-2-48-99,26c-34,25-54,33-87,33c-23,0-46-4-49-10
			c-4-6,6-10,23-10c19,0,49-16,88-46c32-25,60-49,62-54c2-4-7-15-20-24c-21-15-18-16,60-16c85,0,127-14,179-58c57-49,94-143,61-154
			c-21-7,0-38,26-38c22,0,28-8,46-66c11-36,20-85,20-108L2799.7,1895z"/>
		<path class="st0" d="M544.4,1569.9c-27-22.2-59.1-33.3-88.6-25.9c-14,4-54,36-89,71c-58,60-86,78-86,57c0-4,5-13,11-19
			c9-9,8-28-1-76c-10-50-11-78-2-121c6-31,9-76,6-100c-4-25-2-52,5-62c10-18,11-18,17,4c10,35,29,26,65-30l34-53l3,33
			c3,25-7,51-36,100c-44,76-67,156-57,203l7,31l32-30c17-16,45-37,62-45c12.8-6.8,26.8-19.9,35.9-32.3c6.8,3.5,13.9,6.6,21.4,9.1
			c8.3,2.8,16.7,4.8,25.1,6.3c3.7,7.1,12.6,13.3,29.6,24c11.1,7,20.8,13.5,29.5,19.7C557.5,1544.6,549.6,1556.8,544.4,1569.9z"/>
		<path class="st0" d="M2679.7,1943c-34,68-91,111-168,129c-30,7-67,25-89,43c-7.1,6.1-13.6,11.3-19.4,15.9
			c0.4-6.9,0.1-13.9-0.7-20.7c0.1-0.1,0.1-0.1,0.2-0.2c29-27,60-49,69-50c41-1,139-72,163-117c23-45,20-60-13-77
			c-37-20-161-33-161-18c0,6.5-12.8,19.6-32.8,35.6c-3.3-3.4-6.6-6.8-9.7-10.3c-1.5-1.7-3.6-4.5-4.6-5.9c-2.9-4.5-5.6-9-8.1-13.7
			c-0.8-1.8-2.1-4.7-2.5-6.1c-0.6-2.1-1.2-4.2-1.8-6.4c3.2-2.7,6.4-5.3,9.6-8.1c41-36,50-51,50-77c0-22.2-5.2-37.2-23.7-51.8
			c1.6-17.1,1.1-34.2-2.7-50.4c47,24.5,66.4,54.9,66.4,100.3v43l64,11C2679.7,1827,2716.7,1870,2679.7,1943z"/>
		<path class="st0" d="M886.5,2342.8c15.5,9.9,31.6,17.3,48.3,22.1c-11,7.6-20.9,13.9-29,18.1c-47,25-84,20-160-23
			c-62-35-67-40-40-40c16,0,50,9,74,20c24,11,51,20,60,20C851.5,2360,867,2354.3,886.5,2342.8z"/>
		<path class="st0" d="M2160.7,1270c-8,6-38,7-66,4c-50-6-52-5-58,22c-4,15-5,57-2,93c1.1,13,1.8,24.4,2.1,33.5
			c-3.1,4.8-5.9,9.7-8.4,14.7c-2.6-1.4-5.7-2.6-9.4-3.6c-4.1-2.5-8.4-4.8-12.8-7.1c-14-7.1-29-12.2-43.3-18.5c-2.5-1.2-6.2-3-9-4.6
			c-1.5-4.8-3.2-9.4-5.2-13.9c35.4-26.4,42-53.7,42-138.5c0-128-30-187-130-253c-19-13-36-32-38-42c-4-17-2-17,25-2
			c48,26,100,36,133,23c36-14,49-3,27,21c-22,24-21,43,2,89c11,21,23,55,27,76c10,55,53,97,101,97
			C2165.7,1260,2171.7,1263,2160.7,1270z"/>
		<path id="node4" class="st0" d="M1316.7,800c-2,0-9-7-16-15c-7-9-8-15-2-15c5,0,12,7,16,15C1317.7,793,1318.7,800,1316.7,800z"/>
	</g>
</g>
<g id="Layer_3">
	<circle class="st1" cx="69.3" cy="96.8" r="14.8"/>
	<circle class="st1" cx="69.5" cy="141.2" r="14.8"/>
	<circle class="st1" cx="69.5" cy="185.6" r="14.8"/>
	<circle class="st2" cx="115" cy="72.2" r="14.8"/>
	<circle class="st2" cx="115.1" cy="116.6" r="14.8"/>
	<circle class="st2" cx="115.1" cy="161" r="14.8"/>
	<circle class="st3" cx="165.4" cy="70.6" r="14.8"/>
	<circle class="st3" cx="165.5" cy="115" r="14.8"/>
	<circle class="st3" cx="165.5" cy="159.3" r="14.8"/>
	<circle class="st4" cx="214.2" cy="92.9" r="14.8"/>
	<circle class="st4" cx="214.3" cy="139.3" r="14.8"/>
</g>
<g id="Layer_2">
	<line class="st5" x1="218.7" y1="89.2" x2="171" y2="68.2"/>
	<line class="st5" x1="218.7" y1="136.7" x2="170.3" y2="112.6"/>
	<line class="st5" x1="218.7" y1="89.2" x2="170.3" y2="112.6"/>
	<line class="st5" x1="218.7" y1="136.7" x2="170.3" y2="68.2"/>
	<line class="st5" x1="170.3" y1="157" x2="218.7" y2="136.7"/>
	<line class="st5" x1="218.7" y1="89.2" x2="170.3" y2="157"/>
	<line class="st5" x1="170.3" y1="68.2" x2="119.8" y2="69.2"/>
	<line class="st5" x1="170.3" y1="112.6" x2="119.8" y2="69.2"/>
	<line class="st5" x1="170.3" y1="68.2" x2="119.8" y2="113.6"/>
	<line class="st5" x1="119.8" y1="158" x2="171" y2="68.2"/>
	<line class="st5" x1="119.8" y1="113.6" x2="171.3" y2="113.1"/>
	<line class="st5" x1="119.8" y1="158" x2="171.3" y2="113.1"/>
	<line class="st5" x1="170.3" y1="157" x2="119.8" y2="113.6"/>
	<line class="st5" x1="119.8" y1="158" x2="170.3" y2="157"/>
	<line class="st5" x1="73.1" y1="93.8" x2="119.8" y2="68.2"/>
	<line class="st5" x1="73.1" y1="138.2" x2="119.8" y2="113.6"/>
	<line class="st5" x1="119.8" y1="69.2" x2="73.1" y2="138.2"/>
	<line class="st5" x1="73.1" y1="93.8" x2="119.8" y2="113.6"/>
	<line class="st5" x1="119.8" y1="69.2" x2="73.1" y2="182.6"/>
	<line class="st5" x1="73.1" y1="138.2" x2="119.8" y2="158"/>
	<line class="st5" x1="119.8" y1="113.6" x2="73.1" y2="182.6"/>
	<line class="st5" x1="119.8" y1="158" x2="73.1" y2="182.6"/>
	<line class="st5" x1="73.1" y1="93.8" x2="119.8" y2="158"/>
	<circle class="st6" cx="218.7" cy="89.2" r="14.8"/>
	<circle class="st6" cx="218.7" cy="136.7" r="14.8"/>
	<circle class="st6" cx="170.3" cy="68.2" r="14.8"/>
	<circle class="st6" cx="170.3" cy="112.6" r="14.8"/>
	<circle class="st6" cx="170.3" cy="157" r="14.8"/>
	<circle class="st6" cx="119.8" cy="69.2" r="14.8"/>
	<circle class="st6" cx="119.8" cy="113.6" r="14.8"/>
	<circle class="st6" cx="119.8" cy="158" r="14.8"/>
	<circle class="st6" cx="73.1" cy="93.8" r="14.8"/>
	<circle class="st6" cx="73.2" cy="138.2" r="14.8"/>
	<circle class="st6" cx="73.2" cy="182.6" r="14.8"/>
</g>
</svg>
