<svg xmlns="http://www.w3.org/2000/svg" viewBox="0 0 80.14 80.14" width="1" height="1"><defs><style>.cls-1{fill:#d1d3d4;stroke:#231f20;stroke-miterlimit:10;stroke-width:2px;}.cls-2{fill:#f1f2f2;}.cls-3{fill:#fff;}</style></defs><g id="Layer_2" data-name="Layer 2"><g id="Layer_1-2" data-name="Layer 1"><circle class="cls-1" cx="40.07" cy="40.07" r="39.06"/><path class="cls-2" d="M52.29,51.14c6.55,4,6.47,9.08,9.67,9.09,5.81,0,14.6-16.81,10.53-32-3.76-14-16.72-19.81-17.62-20.2C52.3,7,43.35,3.52,33.39,7.09S15.17,20.24,17.05,24.71c1.57,3.73,8.93.84,13.67,6.26,4.45,5.08.52,10.52,4.81,15S44.74,46.56,52.29,51.14Z"/><path class="cls-3" d="M47.16,24.43C40.44,19,32.69,21.58,32.09,19.12S38.9,10.79,47,10.65c9.14-.17,17.66,6.82,20,15.06,1.65,5.71.7,13.24-2.42,14.34-2.64.93-6.39-2.84-9.83-6.3C49.93,28.85,50.48,27.12,47.16,24.43Z"/></g></g></svg>