<svg xmlns="http://www.w3.org/2000/svg" width="142" height="142" viewBox="0 0 142 142">
  <g id="Leaky-ReLU" transform="translate(-558 -950)">
    <g id="Path_15" data-name="Path 15" transform="translate(558 950)" fill="none">
      <path d="M0,0H142V142H0Z" stroke="none"/>
      <path d="M 1 1 L 1 141 L 141 141 L 141 1 L 1 1 M 0 0 L 142 0 L 142 142 L 0 142 L 0 0 Z" stroke="none" fill="#707070"/>
    </g>
    <path id="Path_16" data-name="Path 16" d="M0,0V94" transform="translate(629 962)" fill="none" stroke="#707070" stroke-width="2"/>
    <line id="Line_161" data-name="Line 161" x1="120" transform="translate(570 1022)" fill="none" stroke="#707070" stroke-width="2"/>
    <path id="Path_14" data-name="Path 14" d="M613.129,972.369l-51.868,51.26-58.723,7.685" transform="translate(68.056 -1.324)" fill="none" stroke="#38c692" stroke-width="5"/>
    <path id="Path_42" data-name="Path 42" d="M-63.822-15.356V0h8.14V-2.442h-5.06V-15.356Zm15.334,5.5a2.708,2.708,0,0,1,2.9,2.618H-51.37A2.83,2.83,0,0,1-48.488-9.856ZM-42.7-3.828h-3.322a2.511,2.511,0,0,1-2.442,1.474A2.852,2.852,0,0,1-51.392-5.17h8.91a7.2,7.2,0,0,0,.088-1.188A5.722,5.722,0,0,0-48.4-12.386c-3.608,0-6.116,2.442-6.116,6.292A5.9,5.9,0,0,0-48.4.2,5.665,5.665,0,0,0-42.7-3.828Zm1.76-2.31C-40.942-2.332-38.478.2-35.4.2a4.807,4.807,0,0,0,4.048-1.98V0h3.1V-12.188h-3.1v1.738a4.82,4.82,0,0,0-4.026-1.936C-38.478-12.386-40.942-9.944-40.942-6.138Zm9.592.044a3.282,3.282,0,0,1-3.234,3.586A3.331,3.331,0,0,1-37.8-6.138,3.251,3.251,0,0,1-34.584-9.68,3.282,3.282,0,0,1-31.35-6.094ZM-25.234,0h3.08V-5.192L-18.018,0h4l-5.412-6.072,5.368-6.116h-4l-4.092,5.17V-16.28h-3.08Zm18.04-3.674-3.146-8.514h-3.454L-8.91-.308l-2.64,6.072h3.278L-.726-12.188H-4ZM.968-6.556H10.3v-2.6H.968ZM21.89-10.582c0,1.386-.77,2.288-2.486,2.288H16.83V-12.8H19.4C21.12-12.8,21.89-11.946,21.89-10.582Zm-8.14-4.774V0h3.08V-5.984h1.452L21.67,0h3.564L21.56-6.226a4.434,4.434,0,0,0,3.5-4.422c0-2.574-1.848-4.708-5.544-4.708Zm19.338,5.5a2.708,2.708,0,0,1,2.9,2.618H30.206A2.83,2.83,0,0,1,33.088-9.856Zm5.786,6.028H35.552A2.511,2.511,0,0,1,33.11-2.354,2.852,2.852,0,0,1,30.184-5.17h8.91a7.2,7.2,0,0,0,.088-1.188,5.722,5.722,0,0,0-6.006-6.028c-3.608,0-6.116,2.442-6.116,6.292A5.9,5.9,0,0,0,33.176.2,5.665,5.665,0,0,0,38.874-3.828Zm2.552-11.528V0h8.14V-2.442h-5.06V-15.356ZM51.48-5.874c0,4.048,2.772,6.028,6.138,6.028s6.27-1.98,6.27-6.028v-9.482h-3.1v9.5c0,2.112-1.144,3.212-3.124,3.212-1.958,0-3.1-1.1-3.1-3.212v-9.5H51.48Z" transform="translate(629 1079)" fill="#303030"/>
  </g>
</svg>
