<svg xmlns="http://www.w3.org/2000/svg" width="142" height="142" viewBox="0 0 142 142">
  <g id="Swish" transform="translate(-558 -950)">
    <g id="Path_15" data-name="Path 15" transform="translate(558 950)" fill="none">
      <path d="M0,0H142V142H0Z" stroke="none"/>
      <path d="M 1 1 L 1 141 L 141 141 L 141 1 L 1 1 M 0 0 L 142 0 L 142 142 L 0 142 L 0 0 Z" stroke="none" fill="#707070"/>
    </g>
    <path id="Path_16" data-name="Path 16" d="M0,0V94" transform="translate(629 962)" fill="none" stroke="#707070" stroke-width="2"/>
    <line id="Line_161" data-name="Line 161" x1="120" transform="translate(570 1009)" fill="none" stroke="#707070" stroke-width="2"/>
    <path id="Path_41" data-name="Path 41" d="M-20.053-4.444c0-5.412-7.876-3.7-7.876-6.776,0-1.254.9-1.848,2.112-1.8a2.027,2.027,0,0,1,2.2,1.826h3.388c-.2-2.772-2.354-4.378-5.5-4.378-3.168,0-5.412,1.672-5.412,4.444-.022,5.566,7.9,3.564,7.9,6.886,0,1.1-.858,1.87-2.31,1.87a2.108,2.108,0,0,1-2.332-2.046h-3.3c.044,2.9,2.508,4.576,5.7,4.576C-21.989.154-20.053-2.024-20.053-4.444ZM-15.169,0h3.344L-9.6-8.514-7.381,0h3.322L-.5-12.188H-3.443L-5.6-2.926l-2.288-9.262h-3.256L-13.475-2.9l-2.156-9.284h-3.124ZM1.177,0h3.08V-12.188H1.177ZM2.739-13.64a1.819,1.819,0,0,0,1.892-1.8,1.819,1.819,0,0,0-1.892-1.8,1.806,1.806,0,0,0-1.892,1.8A1.806,1.806,0,0,0,2.739-13.64ZM16.753-3.476c-.088-4.466-6.842-3.08-6.842-5.3,0-.7.594-1.166,1.738-1.166A1.816,1.816,0,0,1,13.7-8.36h2.948c-.176-2.42-1.958-4.026-4.906-4.026-3.014,0-4.818,1.628-4.818,3.652,0,4.466,6.886,3.08,6.886,5.258,0,.7-.66,1.254-1.87,1.254a2.023,2.023,0,0,1-2.2-1.628h-3.1C6.765-1.584,8.9.2,11.957.2,14.927.2,16.753-1.386,16.753-3.476ZM19.283,0h3.08V-6.732c0-1.958,1.078-3.014,2.75-3.014,1.628,0,2.706,1.056,2.706,3.014V0H30.9V-7.15c0-3.366-2-5.214-4.752-5.214a4.683,4.683,0,0,0-3.784,1.694v-5.61h-3.08Z" transform="translate(629 1079)" fill="#303030"/>
    <path id="Path_17" data-name="Path 17" d="M671.564,970.491c-13.412,14.172-38.224,33.626-43.049,38.224s-3.967,3.184-13.638,9.476-22.35,0-22.35,0c-8.687-4.789-9.406-5.148-22.526-7.2" fill="none" stroke="#5043ff" stroke-width="5"/>
  </g>
</svg>
